<svg version="1.1" viewBox="0.0 0.0 492.0 304.0" fill="none" stroke="none" stroke-linecap="square" stroke-miterlimit="10" width="492" height="304" xmlns:xlink="http://www.w3.org/1999/xlink" xmlns="http://www.w3.org/2000/svg"><path fill="#ffffff" d="M0 0L492.0 0L492.0 304.0L0 304.0L0 0Z" fill-rule="nonzero"/><path stroke="#cccccc" stroke-width="1.0" stroke-linecap="butt" d="M142.5 80.5L142.5 236.5" fill-rule="nonzero"/><path stroke="#cccccc" stroke-width="1.0" stroke-linecap="butt" d="M239.5 80.5L239.5 236.5" fill-rule="nonzero"/><path stroke="#cccccc" stroke-width="1.0" stroke-linecap="butt" d="M336.5 80.5L336.5 236.5" fill-rule="nonzero"/><path stroke="#cccccc" stroke-width="1.0" stroke-linecap="butt" d="M433.5 80.5L433.5 236.5" fill-rule="nonzero"/><path stroke="#333333" stroke-width="1.0" stroke-linecap="butt" d="M85.5 236.5L476.5 236.5" fill-rule="nonzero"/><path stroke="#cccccc" stroke-width="1.0" stroke-linecap="butt" d="M85.5 197.5L476.5 197.5" fill-rule="nonzero"/><path stroke="#cccccc" stroke-width="1.0" stroke-linecap="butt" d="M85.5 158.5L476.5 158.5" fill-rule="nonzero"/><path stroke="#cccccc" stroke-width="1.0" stroke-linecap="butt" d="M85.5 119.5L476.5 119.5" fill-rule="nonzero"/><path stroke="#cccccc" stroke-width="1.0" stroke-linecap="butt" d="M85.5 80.5L476.5 80.5" fill-rule="nonzero"/><path stroke="#e6e6e6" stroke-width="1.0" stroke-linecap="butt" d="M85.5 223.5L476.5 223.5" fill-rule="nonzero"/><path stroke="#e6e6e6" stroke-width="1.0" stroke-linecap="butt" d="M85.5 210.5L476.5 210.5" fill-rule="nonzero"/><path stroke="#e6e6e6" stroke-width="1.0" stroke-linecap="butt" d="M85.5 184.5L476.5 184.5" fill-rule="nonzero"/><path stroke="#e6e6e6" stroke-width="1.0" stroke-linecap="butt" d="M85.5 171.5L476.5 171.5" fill-rule="nonzero"/><path stroke="#e6e6e6" stroke-width="1.0" stroke-linecap="butt" d="M85.5 145.5L476.5 145.5" fill-rule="nonzero"/><path stroke="#e6e6e6" stroke-width="1.0" stroke-linecap="butt" d="M85.5 132.5L476.5 132.5" fill-rule="nonzero"/><path stroke="#e6e6e6" stroke-width="1.0" stroke-linecap="butt" d="M85.5 106.5L476.5 106.5" fill-rule="nonzero"/><path stroke="#e6e6e6" stroke-width="1.0" stroke-linecap="butt" d="M85.5 93.5L476.5 93.5" fill-rule="nonzero"/><clipPath id="id_0"><path d="M85.2 80.46667L476.8 80.46667L476.8 236.8L85.2 236.8L85.2 80.46667Z" clip-rule="nonzero"/></clipPath><path stroke="#4285f4" stroke-width="2.0" stroke-linecap="butt" clip-path="url(#id_0)" d="M101.02408 80.46667L114.86838 158.63333L128.71268 119.55L142.55699 111.73333L156.40129 147.46666L170.24559 128.56923L184.08989 136.3L197.93419 139.09166L211.77849 135.64314L225.62279 132.57777L239.4671 135.18333L267.1557 134.84348L281.0 139.09166L308.6886 136.74667L322.5329 140.59488L336.3772 147.46666L350.2215 146.0258L364.0658 148.8625L377.91013 146.7899L391.75443 144.83922L405.59872 142.1772L419.44302 140.59488L433.28732 141.4748L447.13162 143.74445L460.97592 146.99149L474.82022 146.12666" fill-rule="nonzero"/><path stroke="#ea4335" stroke-width="2.0" stroke-linecap="butt" clip-path="url(#id_0)" d="M101.02408 80.46667L114.86838 158.63333L128.71268 119.55L142.55699 111.73333L156.40129 147.46666L170.24559 128.56923L184.08989 136.3L197.93419 129.32083L211.77849 126.44706L225.62279 123.89259L239.4671 119.55L267.1557 121.249275L281.0 126.06389L308.6886 124.24L322.5329 128.56923L336.3772 136.3L350.2215 135.93979L364.0658 139.09166L377.91013 137.31516L391.75443 135.64314L405.59872 133.94913L419.44302 132.57777L433.28732 133.84879L447.13162 136.3L460.97592 140.339L474.82022 139.87334" fill-rule="nonzero"/><path stroke="#fbbc04" stroke-width="2.0" stroke-linecap="butt" clip-path="url(#id_0)" d="M87.17978 147.47113L101.02408 147.47113L114.86838 147.47113L128.71268 147.47113L142.55699 147.47113L156.40129 147.47113L170.24559 147.47113L184.08989 147.47113L197.93419 147.47113L211.77849 147.47113L225.62279 147.47113L239.4671 147.47113L267.1557 147.47113L281.0 147.47113L308.6886 147.47113L322.5329 147.47113L336.3772 147.47113L350.2215 147.47113L364.0658 147.47113L377.91013 147.47113L391.75443 147.47113L405.59872 147.47113L419.44302 147.47113L433.28732 147.47113L447.13162 147.47113L460.97592 147.47113L474.82022 147.47113" fill-rule="nonzero"/><path fill="#4285f4" clip-path="url(#id_0)" d="M103.02408 80.46667C103.02408 81.571236 102.12865 82.46667 101.02408 82.46667C99.91951 82.46667 99.02408 81.571236 99.02408 80.46667C99.02408 79.3621 99.91951 78.46667 101.02408 78.46667C102.12865 78.46667 103.02408 79.3621 103.02408 80.46667Z" fill-rule="nonzero"/><path fill="#4285f4" clip-path="url(#id_0)" d="M116.86838 158.63333C116.86838 159.7379 115.97295 160.63333 114.86838 160.63333C113.76381 160.63333 112.86838 159.7379 112.86838 158.63333C112.86838 157.52876 113.76381 156.63333 114.86838 156.63333C115.97295 156.63333 116.86838 157.52876 116.86838 158.63333Z" fill-rule="nonzero"/><path fill="#4285f4" clip-path="url(#id_0)" d="M130.71268 119.55C130.71268 120.65457 129.81725 121.55 128.71268 121.55C127.608116 121.55 126.712685 120.65457 126.712685 119.55C126.712685 118.44543 127.608116 117.55 128.71268 117.55C129.81725 117.55 130.71268 118.44543 130.71268 119.55Z" fill-rule="nonzero"/><path fill="#4285f4" clip-path="url(#id_0)" d="M144.55699 111.73333C144.55699 112.837906 143.66156 113.73333 142.55699 113.73333C141.45241 113.73333 140.55699 112.837906 140.55699 111.73333C140.55699 110.62876 141.45241 109.73333 142.55699 109.73333C143.66156 109.73333 144.55699 110.62876 144.55699 111.73333Z" fill-rule="nonzero"/><path fill="#4285f4" clip-path="url(#id_0)" d="M158.40129 147.46666C158.40129 148.57124 157.50586 149.46666 156.40129 149.46666C155.29672 149.46666 154.40129 148.57124 154.40129 147.46666C154.40129 146.36209 155.29672 145.46666 156.40129 145.46666C157.50586 145.46666 158.40129 146.36209 158.40129 147.46666Z" fill-rule="nonzero"/><path fill="#4285f4" clip-path="url(#id_0)" d="M172.24559 128.56923C172.24559 129.6738 171.35016 130.56923 170.24559 130.56923C169.14102 130.56923 168.24559 129.6738 168.24559 128.56923C168.24559 127.46466 169.14102 126.56923 170.24559 126.56923C171.35016 126.56923 172.24559 127.46466 172.24559 128.56923Z" fill-rule="nonzero"/><path fill="#4285f4" clip-path="url(#id_0)" d="M186.08989 136.3C186.08989 137.40457 185.19446 138.3 184.08989 138.3C182.98532 138.3 182.08989 137.40457 182.08989 136.3C182.08989 135.19543 182.98532 134.3 184.08989 134.3C185.19446 134.3 186.08989 135.19543 186.08989 136.3Z" fill-rule="nonzero"/><path fill="#4285f4" clip-path="url(#id_0)" d="M199.93419 139.09166C199.93419 140.19624 199.03876 141.09166 197.93419 141.09166C196.82962 141.09166 195.93419 140.19624 195.93419 139.09166C195.93419 137.98709 196.82962 137.09166 197.93419 137.09166C199.03876 137.09166 199.93419 137.98709 199.93419 139.09166Z" fill-rule="nonzero"/><path fill="#4285f4" clip-path="url(#id_0)" d="M213.77849 135.64314C213.77849 136.74771 212.88306 137.64314 211.77849 137.64314C210.67392 137.64314 209.77849 136.74771 209.77849 135.64314C209.77849 134.53857 210.67392 133.64314 211.77849 133.64314C212.88306 133.64314 213.77849 134.53857 213.77849 135.64314Z" fill-rule="nonzero"/><path fill="#4285f4" clip-path="url(#id_0)" d="M227.62279 132.57777C227.62279 133.68234 226.72736 134.57777 225.62279 134.57777C224.51822 134.57777 223.62279 133.68234 223.62279 132.57777C223.62279 131.4732 224.51822 130.57777 225.62279 130.57777C226.72736 130.57777 227.62279 131.4732 227.62279 132.57777Z" fill-rule="nonzero"/><path fill="#4285f4" clip-path="url(#id_0)" d="M241.4671 135.18333C241.4671 136.2879 240.57167 137.18333 239.4671 137.18333C238.36252 137.18333 237.4671 136.2879 237.4671 135.18333C237.4671 134.07877 238.36252 133.18333 239.4671 133.18333C240.57167 133.18333 241.4671 134.07877 241.4671 135.18333Z" fill-rule="nonzero"/><path fill="#4285f4" clip-path="url(#id_0)" d="M269.1557 134.84348C269.1557 135.94804 268.26025 136.84348 267.1557 136.84348C266.05112 136.84348 265.1557 135.94804 265.1557 134.84348C265.1557 133.7389 266.05112 132.84348 267.1557 132.84348C268.26025 132.84348 269.1557 133.7389 269.1557 134.84348Z" fill-rule="nonzero"/><path fill="#4285f4" clip-path="url(#id_0)" d="M283.0 139.09166C283.0 140.19624 282.10458 141.09166 281.0 141.09166C279.89542 141.09166 279.0 140.19624 279.0 139.09166C279.0 137.98709 279.89542 137.09166 281.0 137.09166C282.10458 137.09166 283.0 137.98709 283.0 139.09166Z" fill-rule="nonzero"/><path fill="#4285f4" clip-path="url(#id_0)" d="M310.6886 136.74667C310.6886 137.85124 309.79318 138.74667 308.6886 138.74667C307.58405 138.74667 306.6886 137.85124 306.6886 136.74667C306.6886 135.64209 307.58405 134.74667 308.6886 134.74667C309.79318 134.74667 310.6886 135.64209 310.6886 136.74667Z" fill-rule="nonzero"/><path fill="#4285f4" clip-path="url(#id_0)" d="M324.5329 140.59488C324.5329 141.69945 323.63748 142.59488 322.5329 142.59488C321.42834 142.59488 320.5329 141.69945 320.5329 140.59488C320.5329 139.4903 321.42834 138.59488 322.5329 138.59488C323.63748 138.59488 324.5329 139.4903 324.5329 140.59488Z" fill-rule="nonzero"/><path fill="#4285f4" clip-path="url(#id_0)" d="M338.3772 147.46666C338.3772 148.57124 337.48178 149.46666 336.3772 149.46666C335.27264 149.46666 334.3772 148.57124 334.3772 147.46666C334.3772 146.36209 335.27264 145.46666 336.3772 145.46666C337.48178 145.46666 338.3772 146.36209 338.3772 147.46666Z" fill-rule="nonzero"/><path fill="#4285f4" clip-path="url(#id_0)" d="M352.2215 146.0258C352.2215 147.13037 351.32608 148.0258 350.2215 148.0258C349.11694 148.0258 348.2215 147.13037 348.2215 146.0258C348.2215 144.92123 349.11694 144.0258 350.2215 144.0258C351.32608 144.0258 352.2215 144.92123 352.2215 146.0258Z" fill-rule="nonzero"/><path fill="#4285f4" clip-path="url(#id_0)" d="M366.0658 148.8625C366.0658 149.96707 365.17038 150.8625 364.0658 150.8625C362.96124 150.8625 362.0658 149.96707 362.0658 148.8625C362.0658 147.75793 362.96124 146.8625 364.0658 146.8625C365.17038 146.8625 366.0658 147.75793 366.0658 148.8625Z" fill-rule="nonzero"/><path fill="#4285f4" clip-path="url(#id_0)" d="M379.91013 146.7899C379.91013 147.89447 379.01468 148.7899 377.91013 148.7899C376.80554 148.7899 375.91013 147.89447 375.91013 146.7899C375.91013 145.68533 376.80554 144.7899 377.91013 144.7899C379.01468 144.7899 379.91013 145.68533 379.91013 146.7899Z" fill-rule="nonzero"/><path fill="#4285f4" clip-path="url(#id_0)" d="M393.75443 144.83922C393.75443 145.94379 392.85898 146.83922 391.75443 146.83922C390.64984 146.83922 389.75443 145.94379 389.75443 144.83922C389.75443 143.73465 390.64984 142.83922 391.75443 142.83922C392.85898 142.83922 393.75443 143.73465 393.75443 144.83922Z" fill-rule="nonzero"/><path fill="#4285f4" clip-path="url(#id_0)" d="M407.59872 142.1772C407.59872 143.28177 406.70328 144.1772 405.59872 144.1772C404.49414 144.1772 403.59872 143.28177 403.59872 142.1772C403.59872 141.07262 404.49414 140.1772 405.59872 140.1772C406.70328 140.1772 407.59872 141.07262 407.59872 142.1772Z" fill-rule="nonzero"/><path fill="#4285f4" clip-path="url(#id_0)" d="M421.44302 140.59488C421.44302 141.69945 420.54758 142.59488 419.44302 142.59488C418.33844 142.59488 417.44302 141.69945 417.44302 140.59488C417.44302 139.4903 418.33844 138.59488 419.44302 138.59488C420.54758 138.59488 421.44302 139.4903 421.44302 140.59488Z" fill-rule="nonzero"/><path fill="#4285f4" clip-path="url(#id_0)" d="M435.28732 141.4748C435.28732 142.57936 434.39188 143.4748 433.28732 143.4748C432.18274 143.4748 431.28732 142.57936 431.28732 141.4748C431.28732 140.37022 432.18274 139.4748 433.28732 139.4748C434.39188 139.4748 435.28732 140.37022 435.28732 141.4748Z" fill-rule="nonzero"/><path fill="#4285f4" clip-path="url(#id_0)" d="M449.13162 143.74445C449.13162 144.84901 448.23618 145.74445 447.13162 145.74445C446.02704 145.74445 445.13162 144.84901 445.13162 143.74445C445.13162 142.63988 446.02704 141.74445 447.13162 141.74445C448.23618 141.74445 449.13162 142.63988 449.13162 143.74445Z" fill-rule="nonzero"/><path fill="#4285f4" clip-path="url(#id_0)" d="M462.97592 146.99149C462.97592 148.09605 462.0805 148.99149 460.97592 148.99149C459.87134 148.99149 458.97592 148.09605 458.97592 146.99149C458.97592 145.88692 459.87134 144.99149 460.97592 144.99149C462.0805 144.99149 462.97592 145.88692 462.97592 146.99149Z" fill-rule="nonzero"/><path fill="#4285f4" clip-path="url(#id_0)" d="M476.82022 146.12666C476.82022 147.23123 475.9248 148.12666 474.82022 148.12666C473.71567 148.12666 472.82022 147.23123 472.82022 146.12666C472.82022 145.0221 473.71567 144.12666 474.82022 144.12666C475.9248 144.12666 476.82022 145.0221 476.82022 146.12666Z" fill-rule="nonzero"/><path fill="#ea4335" clip-path="url(#id_0)" d="M103.02408 80.46667C103.02408 81.571236 102.12865 82.46667 101.02408 82.46667C99.91951 82.46667 99.02408 81.571236 99.02408 80.46667C99.02408 79.3621 99.91951 78.46667 101.02408 78.46667C102.12865 78.46667 103.02408 79.3621 103.02408 80.46667Z" fill-rule="nonzero"/><path fill="#ea4335" clip-path="url(#id_0)" d="M116.86838 158.63333C116.86838 159.7379 115.97295 160.63333 114.86838 160.63333C113.76381 160.63333 112.86838 159.7379 112.86838 158.63333C112.86838 157.52876 113.76381 156.63333 114.86838 156.63333C115.97295 156.63333 116.86838 157.52876 116.86838 158.63333Z" fill-rule="nonzero"/><path fill="#ea4335" clip-path="url(#id_0)" d="M130.71268 119.55C130.71268 120.65457 129.81725 121.55 128.71268 121.55C127.608116 121.55 126.712685 120.65457 126.712685 119.55C126.712685 118.44543 127.608116 117.55 128.71268 117.55C129.81725 117.55 130.71268 118.44543 130.71268 119.55Z" fill-rule="nonzero"/><path fill="#ea4335" clip-path="url(#id_0)" d="M144.55699 111.73333C144.55699 112.837906 143.66156 113.73333 142.55699 113.73333C141.45241 113.73333 140.55699 112.837906 140.55699 111.73333C140.55699 110.62876 141.45241 109.73333 142.55699 109.73333C143.66156 109.73333 144.55699 110.62876 144.55699 111.73333Z" fill-rule="nonzero"/><path fill="#ea4335" clip-path="url(#id_0)" d="M158.40129 147.46666C158.40129 148.57124 157.50586 149.46666 156.40129 149.46666C155.29672 149.46666 154.40129 148.57124 154.40129 147.46666C154.40129 146.36209 155.29672 145.46666 156.40129 145.46666C157.50586 145.46666 158.40129 146.36209 158.40129 147.46666Z" fill-rule="nonzero"/><path fill="#ea4335" clip-path="url(#id_0)" d="M172.24559 128.56923C172.24559 129.6738 171.35016 130.56923 170.24559 130.56923C169.14102 130.56923 168.24559 129.6738 168.24559 128.56923C168.24559 127.46466 169.14102 126.56923 170.24559 126.56923C171.35016 126.56923 172.24559 127.46466 172.24559 128.56923Z" fill-rule="nonzero"/><path fill="#ea4335" clip-path="url(#id_0)" d="M186.08989 136.3C186.08989 137.40457 185.19446 138.3 184.08989 138.3C182.98532 138.3 182.08989 137.40457 182.08989 136.3C182.08989 135.19543 182.98532 134.3 184.08989 134.3C185.19446 134.3 186.08989 135.19543 186.08989 136.3Z" fill-rule="nonzero"/><path fill="#ea4335" clip-path="url(#id_0)" d="M199.93419 129.32083C199.93419 130.4254 199.03876 131.32083 197.93419 131.32083C196.82962 131.32083 195.93419 130.4254 195.93419 129.32083C195.93419 128.21626 196.82962 127.32083 197.93419 127.32083C199.03876 127.32083 199.93419 128.21626 199.93419 129.32083Z" fill-rule="nonzero"/><path fill="#ea4335" clip-path="url(#id_0)" d="M213.77849 126.44706C213.77849 127.55163 212.88306 128.44705 211.77849 128.44705C210.67392 128.44705 209.77849 127.55163 209.77849 126.44706C209.77849 125.34249 210.67392 124.44706 211.77849 124.44706C212.88306 124.44706 213.77849 125.34249 213.77849 126.44706Z" fill-rule="nonzero"/><path fill="#ea4335" clip-path="url(#id_0)" d="M227.62279 123.89259C227.62279 124.99716 226.72736 125.89259 225.62279 125.89259C224.51822 125.89259 223.62279 124.99716 223.62279 123.89259C223.62279 122.788025 224.51822 121.89259 225.62279 121.89259C226.72736 121.89259 227.62279 122.788025 227.62279 123.89259Z" fill-rule="nonzero"/><path fill="#ea4335" clip-path="url(#id_0)" d="M241.4671 119.55C241.4671 120.65457 240.57167 121.55 239.4671 121.55C238.36252 121.55 237.4671 120.65457 237.4671 119.55C237.4671 118.44543 238.36252 117.55 239.4671 117.55C240.57167 117.55 241.4671 118.44543 241.4671 119.55Z" fill-rule="nonzero"/><path fill="#ea4335" clip-path="url(#id_0)" d="M269.1557 121.249275C269.1557 122.35384 268.26025 123.249275 267.1557 123.249275C266.05112 123.249275 265.1557 122.35384 265.1557 121.249275C265.1557 120.14471 266.05112 119.249275 267.1557 119.249275C268.26025 119.249275 269.1557 120.14471 269.1557 121.249275Z" fill-rule="nonzero"/><path fill="#ea4335" clip-path="url(#id_0)" d="M283.0 126.06389C283.0 127.16846 282.10458 128.06389 281.0 128.06389C279.89542 128.06389 279.0 127.16846 279.0 126.06389C279.0 124.95932 279.89542 124.06389 281.0 124.06389C282.10458 124.06389 283.0 124.95932 283.0 126.06389Z" fill-rule="nonzero"/><path fill="#ea4335" clip-path="url(#id_0)" d="M310.6886 124.24C310.6886 125.34457 309.79318 126.24 308.6886 126.24C307.58405 126.24 306.6886 125.34457 306.6886 124.24C306.6886 123.13543 307.58405 122.24 308.6886 122.24C309.79318 122.24 310.6886 123.13543 310.6886 124.24Z" fill-rule="nonzero"/><path fill="#ea4335" clip-path="url(#id_0)" d="M324.5329 128.56923C324.5329 129.6738 323.63748 130.56923 322.5329 130.56923C321.42834 130.56923 320.5329 129.6738 320.5329 128.56923C320.5329 127.46466 321.42834 126.56923 322.5329 126.56923C323.63748 126.56923 324.5329 127.46466 324.5329 128.56923Z" fill-rule="nonzero"/><path fill="#ea4335" clip-path="url(#id_0)" d="M338.3772 136.3C338.3772 137.40457 337.48178 138.3 336.3772 138.3C335.27264 138.3 334.3772 137.40457 334.3772 136.3C334.3772 135.19543 335.27264 134.3 336.3772 134.3C337.48178 134.3 338.3772 135.19543 338.3772 136.3Z" fill-rule="nonzero"/><path fill="#ea4335" clip-path="url(#id_0)" d="M352.2215 135.93979C352.2215 137.04436 351.32608 137.93979 350.2215 137.93979C349.11694 137.93979 348.2215 137.04436 348.2215 135.93979C348.2215 134.83522 349.11694 133.93979 350.2215 133.93979C351.32608 133.93979 352.2215 134.83522 352.2215 135.93979Z" fill-rule="nonzero"/><path fill="#ea4335" clip-path="url(#id_0)" d="M366.0658 139.09166C366.0658 140.19624 365.17038 141.09166 364.0658 141.09166C362.96124 141.09166 362.0658 140.19624 362.0658 139.09166C362.0658 137.98709 362.96124 137.09166 364.0658 137.09166C365.17038 137.09166 366.0658 137.98709 366.0658 139.09166Z" fill-rule="nonzero"/><path fill="#ea4335" clip-path="url(#id_0)" d="M379.91013 137.31516C379.91013 138.41972 379.01468 139.31516 377.91013 139.31516C376.80554 139.31516 375.91013 138.41972 375.91013 137.31516C375.91013 136.21059 376.80554 135.31516 377.91013 135.31516C379.01468 135.31516 379.91013 136.21059 379.91013 137.31516Z" fill-rule="nonzero"/><path fill="#ea4335" clip-path="url(#id_0)" d="M393.75443 135.64314C393.75443 136.74771 392.85898 137.64314 391.75443 137.64314C390.64984 137.64314 389.75443 136.74771 389.75443 135.64314C389.75443 134.53857 390.64984 133.64314 391.75443 133.64314C392.85898 133.64314 393.75443 134.53857 393.75443 135.64314Z" fill-rule="nonzero"/><path fill="#ea4335" clip-path="url(#id_0)" d="M407.59872 133.94913C407.59872 135.0537 406.70328 135.94913 405.59872 135.94913C404.49414 135.94913 403.59872 135.0537 403.59872 133.94913C403.59872 132.84456 404.49414 131.94913 405.59872 131.94913C406.70328 131.94913 407.59872 132.84456 407.59872 133.94913Z" fill-rule="nonzero"/><path fill="#ea4335" clip-path="url(#id_0)" d="M421.44302 132.57777C421.44302 133.68234 420.54758 134.57777 419.44302 134.57777C418.33844 134.57777 417.44302 133.68234 417.44302 132.57777C417.44302 131.4732 418.33844 130.57777 419.44302 130.57777C420.54758 130.57777 421.44302 131.4732 421.44302 132.57777Z" fill-rule="nonzero"/><path fill="#ea4335" clip-path="url(#id_0)" d="M435.28732 133.84879C435.28732 134.95335 434.39188 135.84879 433.28732 135.84879C432.18274 135.84879 431.28732 134.95335 431.28732 133.84879C431.28732 132.74422 432.18274 131.84879 433.28732 131.84879C434.39188 131.84879 435.28732 132.74422 435.28732 133.84879Z" fill-rule="nonzero"/><path fill="#ea4335" clip-path="url(#id_0)" d="M449.13162 136.3C449.13162 137.40457 448.23618 138.3 447.13162 138.3C446.02704 138.3 445.13162 137.40457 445.13162 136.3C445.13162 135.19543 446.02704 134.3 447.13162 134.3C448.23618 134.3 449.13162 135.19543 449.13162 136.3Z" fill-rule="nonzero"/><path fill="#ea4335" clip-path="url(#id_0)" d="M462.97592 140.339C462.97592 141.44357 462.0805 142.339 460.97592 142.339C459.87134 142.339 458.97592 141.44357 458.97592 140.339C458.97592 139.23444 459.87134 138.339 460.97592 138.339C462.0805 138.339 462.97592 139.23444 462.97592 140.339Z" fill-rule="nonzero"/><path fill="#ea4335" clip-path="url(#id_0)" d="M476.82022 139.87334C476.82022 140.9779 475.9248 141.87334 474.82022 141.87334C473.71567 141.87334 472.82022 140.9779 472.82022 139.87334C472.82022 138.76877 473.71567 137.87334 474.82022 137.87334C475.9248 137.87334 476.82022 138.76877 476.82022 139.87334Z" fill-rule="nonzero"/><path fill="#000000" fill-opacity="0.0" clip-path="url(#id_0)" d="M90.17978 147.47113C90.17978 149.12799 88.83663 150.47113 87.17978 150.47113C85.52293 150.47113 84.17978 149.12799 84.17978 147.47113C84.17978 145.81429 85.52293 144.47113 87.17978 144.47113C88.83663 144.47113 90.17978 145.81429 90.17978 147.47113Z" fill-rule="nonzero"/><path fill="#000000" fill-opacity="0.0" clip-path="url(#id_0)" d="M104.02408 147.47113C104.02408 149.12799 102.68093 150.47113 101.02408 150.47113C99.367226 150.47113 98.02408 149.12799 98.02408 147.47113C98.02408 145.81429 99.367226 144.47113 101.02408 144.47113C102.68093 144.47113 104.02408 145.81429 104.02408 147.47113Z" fill-rule="nonzero"/><path fill="#000000" fill-opacity="0.0" clip-path="url(#id_0)" d="M117.86838 147.47113C117.86838 149.12799 116.52524 150.47113 114.86838 150.47113C113.211525 150.47113 111.86838 149.12799 111.86838 147.47113C111.86838 145.81429 113.211525 144.47113 114.86838 144.47113C116.52524 144.47113 117.86838 145.81429 117.86838 147.47113Z" fill-rule="nonzero"/><path fill="#000000" fill-opacity="0.0" clip-path="url(#id_0)" d="M131.71268 147.47113C131.71268 149.12799 130.36954 150.47113 128.71268 150.47113C127.05583 150.47113 125.712685 149.12799 125.712685 147.47113C125.712685 145.81429 127.05583 144.47113 128.71268 144.47113C130.36954 144.47113 131.71268 145.81429 131.71268 147.47113Z" fill-rule="nonzero"/><path fill="#000000" fill-opacity="0.0" clip-path="url(#id_0)" d="M145.55699 147.47113C145.55699 149.12799 144.21384 150.47113 142.55699 150.47113C140.90013 150.47113 139.55699 149.12799 139.55699 147.47113C139.55699 145.81429 140.90013 144.47113 142.55699 144.47113C144.21384 144.47113 145.55699 145.81429 145.55699 147.47113Z" fill-rule="nonzero"/><path fill="#000000" fill-opacity="0.0" clip-path="url(#id_0)" d="M159.40129 147.47113C159.40129 149.12799 158.05814 150.47113 156.40129 150.47113C154.74443 150.47113 153.40129 149.12799 153.40129 147.47113C153.40129 145.81429 154.74443 144.47113 156.40129 144.47113C158.05814 144.47113 159.40129 145.81429 159.40129 147.47113Z" fill-rule="nonzero"/><path fill="#000000" fill-opacity="0.0" clip-path="url(#id_0)" d="M173.24559 147.47113C173.24559 149.12799 171.90244 150.47113 170.24559 150.47113C168.58873 150.47113 167.24559 149.12799 167.24559 147.47113C167.24559 145.81429 168.58873 144.47113 170.24559 144.47113C171.90244 144.47113 173.24559 145.81429 173.24559 147.47113Z" fill-rule="nonzero"/><path fill="#000000" fill-opacity="0.0" clip-path="url(#id_0)" d="M187.08989 147.47113C187.08989 149.12799 185.74675 150.47113 184.08989 150.47113C182.43303 150.47113 181.08989 149.12799 181.08989 147.47113C181.08989 145.81429 182.43303 144.47113 184.08989 144.47113C185.74675 144.47113 187.08989 145.81429 187.08989 147.47113Z" fill-rule="nonzero"/><path fill="#000000" fill-opacity="0.0" clip-path="url(#id_0)" d="M200.93419 147.47113C200.93419 149.12799 199.59105 150.47113 197.93419 150.47113C196.27734 150.47113 194.93419 149.12799 194.93419 147.47113C194.93419 145.81429 196.27734 144.47113 197.93419 144.47113C199.59105 144.47113 200.93419 145.81429 200.93419 147.47113Z" fill-rule="nonzero"/><path fill="#000000" fill-opacity="0.0" clip-path="url(#id_0)" d="M214.77849 147.47113C214.77849 149.12799 213.43535 150.47113 211.77849 150.47113C210.12164 150.47113 208.77849 149.12799 208.77849 147.47113C208.77849 145.81429 210.12164 144.47113 211.77849 144.47113C213.43535 144.47113 214.77849 145.81429 214.77849 147.47113Z" fill-rule="nonzero"/><path fill="#000000" fill-opacity="0.0" clip-path="url(#id_0)" d="M228.62279 147.47113C228.62279 149.12799 227.27965 150.47113 225.62279 150.47113C223.96594 150.47113 222.62279 149.12799 222.62279 147.47113C222.62279 145.81429 223.96594 144.47113 225.62279 144.47113C227.27965 144.47113 228.62279 145.81429 228.62279 147.47113Z" fill-rule="nonzero"/><path fill="#000000" fill-opacity="0.0" clip-path="url(#id_0)" d="M242.4671 147.47113C242.4671 149.12799 241.12395 150.47113 239.4671 150.47113C237.81024 150.47113 236.4671 149.12799 236.4671 147.47113C236.4671 145.81429 237.81024 144.47113 239.4671 144.47113C241.12395 144.47113 242.4671 145.81429 242.4671 147.47113Z" fill-rule="nonzero"/><path fill="#000000" fill-opacity="0.0" clip-path="url(#id_0)" d="M270.1557 147.47113C270.1557 149.12799 268.81256 150.47113 267.1557 150.47113C265.49884 150.47113 264.1557 149.12799 264.1557 147.47113C264.1557 145.81429 265.49884 144.47113 267.1557 144.47113C268.81256 144.47113 270.1557 145.81429 270.1557 147.47113Z" fill-rule="nonzero"/><path fill="#000000" fill-opacity="0.0" clip-path="url(#id_0)" d="M284.0 147.47113C284.0 149.12799 282.65686 150.47113 281.0 150.47113C279.34314 150.47113 278.0 149.12799 278.0 147.47113C278.0 145.81429 279.34314 144.47113 281.0 144.47113C282.65686 144.47113 284.0 145.81429 284.0 147.47113Z" fill-rule="nonzero"/><path fill="#000000" fill-opacity="0.0" clip-path="url(#id_0)" d="M311.6886 147.47113C311.6886 149.12799 310.34546 150.47113 308.6886 150.47113C307.03174 150.47113 305.6886 149.12799 305.6886 147.47113C305.6886 145.81429 307.03174 144.47113 308.6886 144.47113C310.34546 144.47113 311.6886 145.81429 311.6886 147.47113Z" fill-rule="nonzero"/><path fill="#000000" fill-opacity="0.0" clip-path="url(#id_0)" d="M325.5329 147.47113C325.5329 149.12799 324.18976 150.47113 322.5329 150.47113C320.87604 150.47113 319.5329 149.12799 319.5329 147.47113C319.5329 145.81429 320.87604 144.47113 322.5329 144.47113C324.18976 144.47113 325.5329 145.81429 325.5329 147.47113Z" fill-rule="nonzero"/><path fill="#000000" fill-opacity="0.0" clip-path="url(#id_0)" d="M339.3772 147.47113C339.3772 149.12799 338.03406 150.47113 336.3772 150.47113C334.72034 150.47113 333.3772 149.12799 333.3772 147.47113C333.3772 145.81429 334.72034 144.47113 336.3772 144.47113C338.03406 144.47113 339.3772 145.81429 339.3772 147.47113Z" fill-rule="nonzero"/><path fill="#000000" fill-opacity="0.0" clip-path="url(#id_0)" d="M353.2215 147.47113C353.2215 149.12799 351.87836 150.47113 350.2215 150.47113C348.56467 150.47113 347.2215 149.12799 347.2215 147.47113C347.2215 145.81429 348.56467 144.47113 350.2215 144.47113C351.87836 144.47113 353.2215 145.81429 353.2215 147.47113Z" fill-rule="nonzero"/><path fill="#000000" fill-opacity="0.0" clip-path="url(#id_0)" d="M367.0658 147.47113C367.0658 149.12799 365.72266 150.47113 364.0658 150.47113C362.40897 150.47113 361.0658 149.12799 361.0658 147.47113C361.0658 145.81429 362.40897 144.47113 364.0658 144.47113C365.72266 144.47113 367.0658 145.81429 367.0658 147.47113Z" fill-rule="nonzero"/><path fill="#000000" fill-opacity="0.0" clip-path="url(#id_0)" d="M380.91013 147.47113C380.91013 149.12799 379.56696 150.47113 377.91013 150.47113C376.25327 150.47113 374.91013 149.12799 374.91013 147.47113C374.91013 145.81429 376.25327 144.47113 377.91013 144.47113C379.56696 144.47113 380.91013 145.81429 380.91013 147.47113Z" fill-rule="nonzero"/><path fill="#000000" fill-opacity="0.0" clip-path="url(#id_0)" d="M394.75443 147.47113C394.75443 149.12799 393.41125 150.47113 391.75443 150.47113C390.09756 150.47113 388.75443 149.12799 388.75443 147.47113C388.75443 145.81429 390.09756 144.47113 391.75443 144.47113C393.41125 144.47113 394.75443 145.81429 394.75443 147.47113Z" fill-rule="nonzero"/><path fill="#000000" fill-opacity="0.0" clip-path="url(#id_0)" d="M408.59872 147.47113C408.59872 149.12799 407.25555 150.47113 405.59872 150.47113C403.94186 150.47113 402.59872 149.12799 402.59872 147.47113C402.59872 145.81429 403.94186 144.47113 405.59872 144.47113C407.25555 144.47113 408.59872 145.81429 408.59872 147.47113Z" fill-rule="nonzero"/><path fill="#000000" fill-opacity="0.0" clip-path="url(#id_0)" d="M422.44302 147.47113C422.44302 149.12799 421.09988 150.47113 419.44302 150.47113C417.78616 150.47113 416.44302 149.12799 416.44302 147.47113C416.44302 145.81429 417.78616 144.47113 419.44302 144.47113C421.09988 144.47113 422.44302 145.81429 422.44302 147.47113Z" fill-rule="nonzero"/><path fill="#000000" fill-opacity="0.0" clip-path="url(#id_0)" d="M436.28732 147.47113C436.28732 149.12799 434.94418 150.47113 433.28732 150.47113C431.63046 150.47113 430.28732 149.12799 430.28732 147.47113C430.28732 145.81429 431.63046 144.47113 433.28732 144.47113C434.94418 144.47113 436.28732 145.81429 436.28732 147.47113Z" fill-rule="nonzero"/><path fill="#000000" fill-opacity="0.0" clip-path="url(#id_0)" d="M450.13162 147.47113C450.13162 149.12799 448.78848 150.47113 447.13162 150.47113C445.47476 150.47113 444.13162 149.12799 444.13162 147.47113C444.13162 145.81429 445.47476 144.47113 447.13162 144.47113C448.78848 144.47113 450.13162 145.81429 450.13162 147.47113Z" fill-rule="nonzero"/><path fill="#000000" fill-opacity="0.0" clip-path="url(#id_0)" d="M463.97592 147.47113C463.97592 149.12799 462.63278 150.47113 460.97592 150.47113C459.31906 150.47113 457.97592 149.12799 457.97592 147.47113C457.97592 145.81429 459.31906 144.47113 460.97592 144.47113C462.63278 144.47113 463.97592 145.81429 463.97592 147.47113Z" fill-rule="nonzero"/><path fill="#000000" fill-opacity="0.0" clip-path="url(#id_0)" d="M477.82022 147.47113C477.82022 149.12799 476.47708 150.47113 474.82022 150.47113C473.16336 150.47113 471.82022 149.12799 471.82022 147.47113C471.82022 145.81429 473.16336 144.47113 474.82022 144.47113C476.47708 144.47113 477.82022 145.81429 477.82022 147.47113Z" fill-rule="nonzero"/><path fill="#000000" d="M272.42188 286.22186L271.34375 286.22186L271.34375 277.175L278.70312 277.175L278.70312 286.03436L277.625 286.03436L277.625 285.3781L272.42188 285.3781L272.42188 286.22186ZM277.625 280.7375L277.625 278.0656L272.42188 278.0656L272.42188 280.7375L277.625 280.7375ZM277.625 284.4875L277.625 281.6281L272.42188 281.6281L272.42188 284.4875L277.625 284.4875ZM281.79688 285.9406Q282.875 285.05 283.67188 283.7375L284.46875 284.2531Q284.79688 284.4875 284.32812 284.53436Q283.57812 285.7531 282.59375 286.7375L281.79688 285.9406ZM290.89062 282.9406L289.25 282.9406Q289.15625 285.425 286.90625 286.925L286.25 286.1281Q288.3125 284.8625 288.3125 282.7531L288.3125 276.65936L291.82812 276.65936L291.82812 286.03436Q291.82812 286.78436 291.07812 286.78436L290.09375 286.78436L290.0 285.7531L290.70312 285.7531Q290.89062 285.7531 290.89062 285.5656L290.89062 282.9406ZM286.4375 285.65936Q285.875 285.0031 285.125 284.39374L285.82812 283.7375Q286.67188 284.34686 287.1875 284.90936L286.4375 285.65936ZM290.89062 280.26874L289.25 280.26874L289.25 282.05L290.89062 282.05L290.89062 280.26874ZM290.89062 277.55L289.25 277.55L289.25 279.3781L290.89062 279.3781L290.89062 277.55ZM285.82812 281.76874L283.95312 281.76874L283.95312 282.7531L285.82812 282.7531L285.82812 281.76874ZM285.82812 280.1281L283.95312 280.1281L283.95312 281.01874L285.82812 281.01874L285.82812 280.1281ZM285.82812 278.53436L283.95312 278.53436L283.95312 279.3781L285.82812 279.3781L285.82812 278.53436ZM287.79688 277.78436L287.79688 278.53436L286.625 278.53436L286.625 282.7531L287.9375 282.7531L287.9375 283.5031L281.65625 283.5031L281.65625 282.7531L283.15625 282.7531L283.15625 278.53436L281.9375 278.53436L281.9375 277.78436L283.15625 277.78436L283.15625 276.1906L283.90625 276.1906Q284.375 276.2375 283.95312 276.47186L283.95312 277.78436L285.82812 277.78436L285.82812 276.1906L286.57812 276.1906Q287.04688 276.2375 286.625 276.47186L286.625 277.78436L287.79688 277.78436Z" fill-rule="nonzero"/><path fill="#000000" d="M20.528112 165.83646L21.418737 165.83646L21.418737 167.33646Q22.168737 166.77396 22.918737 165.5552L23.856237 166.02396Q23.528112 166.53958 23.199987 166.91458L26.246862 167.19583Q27.043737 167.28958 27.043737 167.9927L27.043737 168.97708L26.012487 169.16458L26.012487 168.50833Q26.012487 168.13333 25.637487 168.08646L23.949987 167.94583L23.949987 169.25833Q26.199987 169.25833 27.278112 171.78958L26.340612 172.3052Q25.637487 170.2427 23.949987 170.14896L23.949987 171.60208L23.199987 171.60208Q23.528112 171.97708 23.903112 172.44583L23.106237 172.96146Q22.309362 171.78958 21.418737 171.27396L21.418737 172.6802L20.528112 172.6802L20.528112 170.85208Q20.106237 170.66458 19.684362 170.52396L19.684362 172.25833L18.793737 172.25833L18.793737 170.28958Q17.199987 170.0552 16.449987 170.0552L16.543737 169.21146Q16.590612 168.83646 16.871862 169.21146Q17.668737 169.3052 18.793737 169.44583L18.793737 166.25833L19.684362 166.25833L19.684362 168.32083Q20.106237 168.13333 20.528112 167.89896L20.528112 165.83646ZM18.231237 168.60208Q17.528112 168.1802 16.778112 167.85208L17.153112 167.00833Q17.387487 166.6802 17.481237 167.10208Q18.324987 167.57083 18.653112 167.85208L18.231237 168.60208ZM23.059362 169.16458L23.059362 167.10208Q22.309362 167.85208 21.418737 168.3677L21.418737 170.28958Q22.403112 170.8052 23.059362 171.46146L23.059362 170.10208L21.793737 170.10208L21.793737 169.21146Q21.840612 168.83646 22.074987 169.16458L23.059362 169.16458ZM20.528112 168.83646Q20.199987 169.02396 19.684362 169.16458L19.684362 169.63333Q20.199987 169.77396 20.528112 169.91458L20.528112 168.83646ZM20.668737 175.07083L22.496862 175.07083L22.496862 173.94583L20.668737 173.94583L20.668737 175.07083ZM17.949987 175.07083L19.778112 175.07083L19.778112 173.94583L17.949987 173.94583L17.949987 175.07083ZM26.528112 173.14896Q27.184362 173.14896 27.184362 173.71146L27.184362 174.5552L26.293737 174.7427L26.293737 174.13333Q26.293737 173.94583 26.106237 173.94583L23.387487 173.94583L23.387487 175.07083L24.090612 175.07083Q25.871862 175.07083 27.184362 175.96146L26.434362 176.6177Q25.449987 175.8677 23.856237 175.8677L17.059362 175.8677L17.059362 173.14896L26.528112 173.14896ZM16.965612 171.41458Q17.481237 170.8052 18.090612 170.47708L18.653112 171.32083Q18.043737 171.7427 17.528112 172.21146L16.965612 171.41458ZM19.637487 155.0552Q20.293737 155.57083 20.903112 156.3677L20.246862 157.07083Q19.543737 156.1802 18.887487 155.75833L19.449987 154.8677Q19.637487 154.72708 19.637487 155.0552ZM21.137487 155.94583Q21.653112 154.8677 22.403112 153.97708L23.246862 154.6802Q22.449987 155.57083 21.793737 156.5552L21.137487 155.94583ZM21.840612 161.47708Q22.637487 162.22708 23.387487 163.16458Q23.715612 163.21146 23.528112 163.39896L22.731237 164.0552Q22.028112 162.9302 21.184362 162.08646L21.840612 161.47708ZM22.168737 161.38333L22.168737 160.72708L21.324987 159.88333Q20.809362 160.35208 20.153112 161.28958L19.543737 160.77396L19.778112 160.44583L18.559362 159.5552L19.074987 158.89896Q19.309362 158.71146 19.262487 159.03958L20.199987 159.83646L20.715612 159.27396L19.309362 158.00833L19.871862 157.39896Q20.106237 157.21146 20.059362 157.58646L22.168737 159.69583L21.934362 157.8677L21.324987 158.33646L20.903112 157.63333Q21.559362 157.02396 22.684362 156.46146L23.153112 157.25833L22.637487 157.4927L22.778112 158.66458L23.949987 158.66458L23.949987 153.78958L24.840612 153.78958L24.840612 158.66458L27.184362 158.66458L27.184362 159.60208L24.840612 159.60208L24.840612 164.4302L23.949987 164.4302L23.949987 159.60208L22.918737 159.60208L23.012487 161.00833Q23.340612 161.0552 23.153112 161.2427L22.168737 161.38333ZM18.465612 154.35208L18.465612 163.8677L17.574987 163.8677L17.574987 159.60208L16.496862 159.60208L16.496862 158.71146Q16.590612 158.2427 16.871862 158.66458L17.574987 158.66458L17.574987 154.35208L18.465612 154.35208ZM19.028112 163.07083Q19.449987 162.22708 20.059362 161.57083L20.856237 162.22708Q20.246862 162.83646 19.731237 163.6802L19.028112 163.07083Z" fill-rule="nonzero"/><path fill="#000000" d="M61.7 236.56563Q61.7 235.03438 62.0125 234.1125Q62.325 233.175 62.934376 232.675Q63.559376 232.175 64.49687 232.175Q65.18437 232.175 65.7 232.45625Q66.23125 232.7375 66.575 233.26875Q66.91875 233.78438 67.10625 234.53438Q67.29375 235.28438 67.29375 236.56563Q67.29375 238.08125 66.98125 239.00313Q66.68437 239.925 66.05937 240.44063Q65.45 240.94063 64.49687 240.94063Q63.2625 240.94063 62.54375 240.05Q61.7 238.9875 61.7 236.56563ZM62.778126 236.56563Q62.778126 238.675 63.278126 239.37813Q63.778126 240.08125 64.49687 240.08125Q65.23125 240.08125 65.71562 239.37813Q66.21562 238.675 66.21562 236.56563Q66.21562 234.44063 65.71562 233.75313Q65.23125 233.05 64.48125 233.05Q63.7625 233.05 63.325 233.65938Q62.778126 234.44063 62.778126 236.56563ZM68.90312 234.26875Q68.90312 233.34688 69.35625 232.70625Q69.825 232.06563 70.7 232.06563Q71.5125 232.06563 72.04375 232.64375Q72.575 233.22188 72.575 234.33125Q72.575 235.425 72.02812 236.01875Q71.49687 236.59688 70.71562 236.59688Q69.93437 236.59688 69.41875 236.01875Q68.90312 235.44063 68.90312 234.26875ZM70.73125 232.78438Q70.34062 232.78438 70.075 233.12813Q69.825 233.47188 69.825 234.37813Q69.825 235.20625 70.075 235.55Q70.34062 235.87813 70.73125 235.87813Q71.1375 235.87813 71.3875 235.53438Q71.65312 235.19063 71.65312 234.3Q71.65312 233.45625 71.3875 233.12813Q71.12187 232.78438 70.73125 232.78438ZM70.73125 241.1125L75.43437 232.06563L76.29375 232.06563L71.60625 241.1125L70.73125 241.1125ZM74.45 238.78438Q74.45 237.8625 74.90312 237.22188Q75.37187 236.58125 76.2625 236.58125Q77.075 236.58125 77.60625 237.15938Q78.1375 237.72188 78.1375 238.84688Q78.1375 239.94063 77.59062 240.53438Q77.05937 241.1125 76.2625 241.1125Q75.49687 241.1125 74.96562 240.53438Q74.45 239.95625 74.45 238.78438ZM76.29375 237.3Q75.8875 237.3 75.62187 237.64375Q75.37187 237.9875 75.37187 238.89375Q75.37187 239.70625 75.6375 240.05Q75.90312 240.39375 76.29375 240.39375Q76.68437 240.39375 76.95 240.05Q77.21562 239.70625 77.21562 238.8Q77.21562 237.97188 76.95 237.64375Q76.68437 237.3 76.29375 237.3Z" fill-rule="nonzero"/><path fill="#000000" d="M60.246876 200.70103L60.246876 201.71666L54.559376 201.71666Q54.559376 201.34166 54.684376 200.98228Q54.903126 200.40416 55.371876 199.84166Q55.85625 199.27916 56.7625 198.54478Q58.16875 197.38853 58.653126 196.71666Q59.153126 196.04478 59.153126 195.45103Q59.153126 194.82603 58.7 194.40416Q58.246876 193.96666 57.528126 193.96666Q56.7625 193.96666 56.309376 194.41978Q55.85625 194.87291 55.840626 195.68541L54.7625 195.57603Q54.871876 194.35728 55.590626 193.73228Q56.325 193.09166 57.559376 193.09166Q58.79375 193.09166 59.5125 193.77916Q60.23125 194.46666 60.23125 195.48228Q60.23125 195.99791 60.0125 196.49791Q59.809376 196.98228 59.309376 197.54478Q58.825 198.09166 57.7 199.04478Q56.746876 199.84166 56.465626 200.13853Q56.2 200.41978 56.028126 200.70103L60.246876 200.70103ZM61.7 199.46666L62.809376 199.37291Q62.934376 200.18541 63.371876 200.59166Q63.825 200.99791 64.46562 200.99791Q65.21562 200.99791 65.74687 200.41978Q66.27812 199.84166 66.27812 198.90416Q66.27812 197.99791 65.7625 197.48228Q65.2625 196.95103 64.43437 196.95103Q63.934376 196.95103 63.5125 197.18541Q63.10625 197.41978 62.871876 197.77916L61.8875 197.65416L62.715626 193.24791L66.99687 193.24791L66.99687 194.24791L63.559376 194.24791L63.10625 196.56041Q63.871876 196.01353 64.71562 196.01353Q65.84062 196.01353 66.60625 196.79478Q67.3875 197.57603 67.3875 198.81041Q67.3875 199.96666 66.71562 200.82603Q65.8875 201.85728 64.46562 201.85728Q63.29375 201.85728 62.54375 201.20103Q61.809376 200.54478 61.7 199.46666ZM68.90312 195.18541Q68.90312 194.26353 69.35625 193.62291Q69.825 192.98228 70.7 192.98228Q71.5125 192.98228 72.04375 193.56041Q72.575 194.13853 72.575 195.24791Q72.575 196.34166 72.02812 196.93541Q71.49687 197.51353 70.71562 197.51353Q69.93437 197.51353 69.41875 196.93541Q68.90312 196.35728 68.90312 195.18541ZM70.73125 193.70103Q70.34062 193.70103 70.075 194.04478Q69.825 194.38853 69.825 195.29478Q69.825 196.12291 70.075 196.46666Q70.34062 196.79478 70.73125 196.79478Q71.1375 196.79478 71.3875 196.45103Q71.65312 196.10728 71.65312 195.21666Q71.65312 194.37291 71.3875 194.04478Q71.12187 193.70103 70.73125 193.70103ZM70.73125 202.02916L75.43437 192.98228L76.29375 192.98228L71.60625 202.02916L70.73125 202.02916ZM74.45 199.70103Q74.45 198.77916 74.90312 198.13853Q75.37187 197.49791 76.2625 197.49791Q77.075 197.49791 77.60625 198.07603Q78.1375 198.63853 78.1375 199.76353Q78.1375 200.85728 77.59062 201.45103Q77.05937 202.02916 76.2625 202.02916Q75.49687 202.02916 74.96562 201.45103Q74.45 200.87291 74.45 199.70103ZM76.29375 198.21666Q75.8875 198.21666 75.62187 198.56041Q75.37187 198.90416 75.37187 199.81041Q75.37187 200.62291 75.6375 200.96666Q75.90312 201.31041 76.29375 201.31041Q76.68437 201.31041 76.95 200.96666Q77.21562 200.62291 77.21562 199.71666Q77.21562 198.88853 76.95 198.56041Q76.68437 198.21666 76.29375 198.21666Z" fill-rule="nonzero"/><path fill="#000000" d="M54.7 160.38333L55.809376 160.28958Q55.934376 161.10208 56.371876 161.50833Q56.825 161.91458 57.465626 161.91458Q58.215626 161.91458 58.746876 161.33646Q59.278126 160.75833 59.278126 159.82083Q59.278126 158.91458 58.7625 158.39896Q58.2625 157.8677 57.434376 157.8677Q56.934376 157.8677 56.5125 158.10208Q56.10625 158.33646 55.871876 158.69583L54.8875 158.57083L55.715626 154.16458L59.996876 154.16458L59.996876 155.16458L56.559376 155.16458L56.10625 157.47708Q56.871876 156.9302 57.715626 156.9302Q58.840626 156.9302 59.60625 157.71146Q60.3875 158.4927 60.3875 159.72708Q60.3875 160.88333 59.715626 161.7427Q58.8875 162.77396 57.465626 162.77396Q56.29375 162.77396 55.54375 162.1177Q54.809376 161.46146 54.7 160.38333ZM61.7 158.39896Q61.7 156.8677 62.0125 155.94583Q62.325 155.00833 62.934376 154.50833Q63.559376 154.00833 64.49687 154.00833Q65.18437 154.00833 65.7 154.28958Q66.23125 154.57083 66.575 155.10208Q66.91875 155.6177 67.10625 156.3677Q67.29375 157.1177 67.29375 158.39896Q67.29375 159.91458 66.98125 160.83646Q66.68437 161.75833 66.05937 162.27396Q65.45 162.77396 64.49687 162.77396Q63.2625 162.77396 62.54375 161.88333Q61.7 160.82083 61.7 158.39896ZM62.778126 158.39896Q62.778126 160.50833 63.278126 161.21146Q63.778126 161.91458 64.49687 161.91458Q65.23125 161.91458 65.71562 161.21146Q66.21562 160.50833 66.21562 158.39896Q66.21562 156.27396 65.71562 155.58646Q65.23125 154.88333 64.48125 154.88333Q63.7625 154.88333 63.325 155.4927Q62.778126 156.27396 62.778126 158.39896ZM68.90312 156.10208Q68.90312 155.1802 69.35625 154.53958Q69.825 153.89896 70.7 153.89896Q71.5125 153.89896 72.04375 154.47708Q72.575 155.0552 72.575 156.16458Q72.575 157.25833 72.02812 157.85208Q71.49687 158.4302 70.71562 158.4302Q69.93437 158.4302 69.41875 157.85208Q68.90312 157.27396 68.90312 156.10208ZM70.73125 154.6177Q70.34062 154.6177 70.075 154.96146Q69.825 155.3052 69.825 156.21146Q69.825 157.03958 70.075 157.38333Q70.34062 157.71146 70.73125 157.71146Q71.1375 157.71146 71.3875 157.3677Q71.65312 157.02396 71.65312 156.13333Q71.65312 155.28958 71.3875 154.96146Q71.12187 154.6177 70.73125 154.6177ZM70.73125 162.94583L75.43437 153.89896L76.29375 153.89896L71.60625 162.94583L70.73125 162.94583ZM74.45 160.6177Q74.45 159.69583 74.90312 159.0552Q75.37187 158.41458 76.2625 158.41458Q77.075 158.41458 77.60625 158.9927Q78.1375 159.5552 78.1375 160.6802Q78.1375 161.77396 77.59062 162.3677Q77.05937 162.94583 76.2625 162.94583Q75.49687 162.94583 74.96562 162.3677Q74.45 161.78958 74.45 160.6177ZM76.29375 159.13333Q75.8875 159.13333 75.62187 159.47708Q75.37187 159.82083 75.37187 160.72708Q75.37187 161.53958 75.6375 161.88333Q75.90312 162.22708 76.29375 162.22708Q76.68437 162.22708 76.95 161.88333Q77.21562 161.53958 77.21562 160.63333Q77.21562 159.8052 76.95 159.47708Q76.68437 159.13333 76.29375 159.13333Z" fill-rule="nonzero"/><path fill="#000000" d="M54.7625 116.08125L54.7625 115.06563L60.325 115.06563L60.325 115.89375Q59.5125 116.76875 58.7 118.22188Q57.903126 119.65938 57.465626 121.19063Q57.1375 122.26875 57.059376 123.55L55.965626 123.55Q55.98125 122.53438 56.35625 121.09688Q56.746876 119.65938 57.45 118.33125Q58.16875 117.00313 58.98125 116.08125L54.7625 116.08125ZM61.7 121.3L62.809376 121.20625Q62.934376 122.01875 63.371876 122.425Q63.825 122.83125 64.46562 122.83125Q65.21562 122.83125 65.74687 122.25313Q66.27812 121.675 66.27812 120.7375Q66.27812 119.83125 65.7625 119.31563Q65.2625 118.78438 64.43437 118.78438Q63.934376 118.78438 63.5125 119.01875Q63.10625 119.25313 62.871876 119.6125L61.8875 119.4875L62.715626 115.08125L66.99687 115.08125L66.99687 116.08125L63.559376 116.08125L63.10625 118.39375Q63.871876 117.84688 64.71562 117.84688Q65.84062 117.84688 66.60625 118.62813Q67.3875 119.40938 67.3875 120.64375Q67.3875 121.8 66.71562 122.65938Q65.8875 123.69063 64.46562 123.69063Q63.29375 123.69063 62.54375 123.03438Q61.809376 122.37813 61.7 121.3ZM68.90312 117.01875Q68.90312 116.09688 69.35625 115.45625Q69.825 114.81563 70.7 114.81563Q71.5125 114.81563 72.04375 115.39375Q72.575 115.97188 72.575 117.08125Q72.575 118.175 72.02812 118.76875Q71.49687 119.34688 70.71562 119.34688Q69.93437 119.34688 69.41875 118.76875Q68.90312 118.19063 68.90312 117.01875ZM70.73125 115.53438Q70.34062 115.53438 70.075 115.87813Q69.825 116.22188 69.825 117.12813Q69.825 117.95625 70.075 118.3Q70.34062 118.62813 70.73125 118.62813Q71.1375 118.62813 71.3875 118.28438Q71.65312 117.94063 71.65312 117.05Q71.65312 116.20625 71.3875 115.87813Q71.12187 115.53438 70.73125 115.53438ZM70.73125 123.8625L75.43437 114.81563L76.29375 114.81563L71.60625 123.8625L70.73125 123.8625ZM74.45 121.53438Q74.45 120.6125 74.90312 119.97188Q75.37187 119.33125 76.2625 119.33125Q77.075 119.33125 77.60625 119.90938Q78.1375 120.47188 78.1375 121.59688Q78.1375 122.69063 77.59062 123.28438Q77.05937 123.8625 76.2625 123.8625Q75.49687 123.8625 74.96562 123.28438Q74.45 122.70625 74.45 121.53438ZM76.29375 120.05Q75.8875 120.05 75.62187 120.39375Q75.37187 120.7375 75.37187 121.64375Q75.37187 122.45625 75.6375 122.8Q75.90312 123.14375 76.29375 123.14375Q76.68437 123.14375 76.95 122.8Q77.21562 122.45625 77.21562 121.55Q77.21562 120.72188 76.95 120.39375Q76.68437 120.05 76.29375 120.05Z" fill-rule="nonzero"/><path fill="#000000" d="M51.66875 84.46667L50.621876 84.46667L50.621876 77.74792Q50.23125 78.10729 49.60625 78.48229Q48.996876 78.84167 48.5125 79.01354L48.5125 77.99792Q49.3875 77.57604 50.04375 76.99792Q50.715626 76.40417 50.996876 75.84167L51.66875 75.84167L51.66875 84.46667ZM54.7 80.23229Q54.7 78.70104 55.0125 77.77917Q55.325 76.84167 55.934376 76.34167Q56.559376 75.84167 57.496876 75.84167Q58.184376 75.84167 58.7 76.12292Q59.23125 76.40417 59.575 76.93542Q59.91875 77.45104 60.10625 78.20104Q60.29375 78.95104 60.29375 80.23229Q60.29375 81.74792 59.98125 82.66979Q59.684376 83.59167 59.059376 84.10729Q58.45 84.60729 57.496876 84.60729Q56.2625 84.60729 55.54375 83.71667Q54.7 82.65417 54.7 80.23229ZM55.778126 80.23229Q55.778126 82.34167 56.278126 83.04479Q56.778126 83.74792 57.496876 83.74792Q58.23125 83.74792 58.715626 83.04479Q59.215626 82.34167 59.215626 80.23229Q59.215626 78.10729 58.715626 77.41979Q58.23125 76.71667 57.48125 76.71667Q56.7625 76.71667 56.325 77.32604Q55.778126 78.10729 55.778126 80.23229ZM61.7 80.23229Q61.7 78.70104 62.0125 77.77917Q62.325 76.84167 62.934376 76.34167Q63.559376 75.84167 64.49687 75.84167Q65.18437 75.84167 65.7 76.12292Q66.23125 76.40417 66.575 76.93542Q66.91875 77.45104 67.10625 78.20104Q67.29375 78.95104 67.29375 80.23229Q67.29375 81.74792 66.98125 82.66979Q66.68437 83.59167 66.05937 84.10729Q65.45 84.60729 64.49687 84.60729Q63.2625 84.60729 62.54375 83.71667Q61.7 82.65417 61.7 80.23229ZM62.778126 80.23229Q62.778126 82.34167 63.278126 83.04479Q63.778126 83.74792 64.49687 83.74792Q65.23125 83.74792 65.71562 83.04479Q66.21562 82.34167 66.21562 80.23229Q66.21562 78.10729 65.71562 77.41979Q65.23125 76.71667 64.48125 76.71667Q63.7625 76.71667 63.325 77.32604Q62.778126 78.10729 62.778126 80.23229ZM68.90312 77.93542Q68.90312 77.01354 69.35625 76.37292Q69.825 75.73229 70.7 75.73229Q71.5125 75.73229 72.04375 76.31042Q72.575 76.88854 72.575 77.99792Q72.575 79.09167 72.02812 79.68542Q71.49687 80.26354 70.71562 80.26354Q69.93437 80.26354 69.41875 79.68542Q68.90312 79.10729 68.90312 77.93542ZM70.73125 76.45104Q70.34062 76.45104 70.075 76.79479Q69.825 77.13854 69.825 78.04479Q69.825 78.87292 70.075 79.21667Q70.34062 79.54479 70.73125 79.54479Q71.1375 79.54479 71.3875 79.20104Q71.65312 78.85729 71.65312 77.96667Q71.65312 77.12292 71.3875 76.79479Q71.12187 76.45104 70.73125 76.45104ZM70.73125 84.77917L75.43437 75.73229L76.29375 75.73229L71.60625 84.77917L70.73125 84.77917ZM74.45 82.45104Q74.45 81.52917 74.90312 80.88854Q75.37187 80.24792 76.2625 80.24792Q77.075 80.24792 77.60625 80.82604Q78.1375 81.38854 78.1375 82.51354Q78.1375 83.60729 77.59062 84.20104Q77.05937 84.77917 76.2625 84.77917Q75.49687 84.77917 74.96562 84.20104Q74.45 83.62292 74.45 82.45104ZM76.29375 80.96667Q75.8875 80.96667 75.62187 81.31042Q75.37187 81.65417 75.37187 82.56042Q75.37187 83.37292 75.6375 83.71667Q75.90312 84.06042 76.29375 84.06042Q76.68437 84.06042 76.95 83.71667Q77.21562 83.37292 77.21562 82.46667Q77.21562 81.63854 76.95 81.31042Q76.68437 80.96667 76.29375 80.96667Z" fill-rule="nonzero"/><path fill="#000000" d="M116.60386 252.78438L116.60386 253.8L110.91636 253.8Q110.91636 253.425 111.04136 253.06563Q111.26011 252.4875 111.72886 251.925Q112.213234 251.3625 113.119484 250.62813Q114.525734 249.47188 115.01011 248.8Q115.51011 248.12813 115.51011 247.53438Q115.51011 246.90938 115.056984 246.4875Q114.60386 246.05 113.88511 246.05Q113.119484 246.05 112.66636 246.50313Q112.213234 246.95625 112.19761 247.76875L111.119484 247.65938Q111.22886 246.44063 111.94761 245.81563Q112.681984 245.175 113.91636 245.175Q115.150734 245.175 115.869484 245.8625Q116.588234 246.55 116.588234 247.56563Q116.588234 248.08125 116.369484 248.58125Q116.16636 249.06563 115.66636 249.62813Q115.181984 250.175 114.056984 251.12813Q113.10386 251.925 112.82261 252.22188Q112.556984 252.50313 112.38511 252.78438L116.60386 252.78438ZM118.056984 249.56563Q118.056984 248.03438 118.369484 247.1125Q118.681984 246.175 119.29136 245.675Q119.91636 245.175 120.85386 245.175Q121.54136 245.175 122.056984 245.45625Q122.588234 245.7375 122.931984 246.26875Q123.275734 246.78438 123.463234 247.53438Q123.650734 248.28438 123.650734 249.56563Q123.650734 251.08125 123.338234 252.00313Q123.04136 252.925 122.41636 253.44063Q121.806984 253.94063 120.85386 253.94063Q119.619484 253.94063 118.900734 253.05Q118.056984 251.9875 118.056984 249.56563ZM119.13511 249.56563Q119.13511 251.675 119.63511 252.37813Q120.13511 253.08125 120.85386 253.08125Q121.588234 253.08125 122.07261 252.37813Q122.57261 251.675 122.57261 249.56563Q122.57261 247.44063 122.07261 246.75313Q121.588234 246.05 120.838234 246.05Q120.119484 246.05 119.681984 246.65938Q119.13511 247.44063 119.13511 249.56563ZM130.60385 252.78438L130.60385 253.8L124.91636 253.8Q124.91636 253.425 125.04136 253.06563Q125.26011 252.4875 125.72886 251.925Q126.213234 251.3625 127.119484 250.62813Q128.52573 249.47188 129.0101 248.8Q129.5101 248.12813 129.5101 247.53438Q129.5101 246.90938 129.05698 246.4875Q128.60385 246.05 127.88511 246.05Q127.119484 246.05 126.66636 246.50313Q126.213234 246.95625 126.19761 247.76875L125.119484 247.65938Q125.22886 246.44063 125.94761 245.81563Q126.681984 245.175 127.91636 245.175Q129.15073 245.175 129.86948 245.8625Q130.58823 246.55 130.58823 247.56563Q130.58823 248.08125 130.36948 248.58125Q130.16635 249.06563 129.66635 249.62813Q129.18198 250.175 128.05698 251.12813Q127.10386 251.925 126.82261 252.22188Q126.556984 252.50313 126.38511 252.78438L130.60385 252.78438ZM135.43198 253.8L135.43198 251.7375L131.71323 251.7375L131.71323 250.76875L135.6351 245.20625L136.49448 245.20625L136.49448 250.76875L137.65073 250.76875L137.65073 251.7375L136.49448 251.7375L136.49448 253.8L135.43198 253.8ZM135.43198 250.76875L135.43198 246.90938L132.74448 250.76875L135.43198 250.76875ZM138.93198 251.22188L138.93198 250.15938L142.18198 250.15938L142.18198 251.22188L138.93198 251.22188ZM143.05698 249.56563Q143.05698 248.03438 143.36948 247.1125Q143.68198 246.175 144.29135 245.675Q144.91635 245.175 145.85385 245.175Q146.54135 245.175 147.05698 245.45625Q147.58823 245.7375 147.93198 246.26875Q148.27573 246.78438 148.46323 247.53438Q148.65073 248.28438 148.65073 249.56563Q148.65073 251.08125 148.33823 252.00313Q148.04135 252.925 147.41635 253.44063Q146.80698 253.94063 145.85385 253.94063Q144.61948 253.94063 143.90073 253.05Q143.05698 251.9875 143.05698 249.56563ZM144.1351 249.56563Q144.1351 251.675 144.6351 252.37813Q145.1351 253.08125 145.85385 253.08125Q146.58823 253.08125 147.0726 252.37813Q147.5726 251.675 147.5726 249.56563Q147.5726 247.44063 147.0726 246.75313Q146.58823 246.05 145.83823 246.05Q145.11948 246.05 144.68198 246.65938Q144.1351 247.44063 144.1351 249.56563ZM154.02573 253.8L152.97885 253.8L152.97885 247.08125Q152.58823 247.44063 151.96323 247.81563Q151.35385 248.175 150.86948 248.34688L150.86948 247.33125Q151.74448 246.90938 152.40073 246.33125Q153.0726 245.7375 153.35385 245.175L154.02573 245.175L154.02573 253.8ZM156.93198 251.22188L156.93198 250.15938L160.18198 250.15938L160.18198 251.22188L156.93198 251.22188ZM161.05698 249.56563Q161.05698 248.03438 161.36948 247.1125Q161.68198 246.175 162.29135 245.675Q162.91635 245.175 163.85385 245.175Q164.54135 245.175 165.05698 245.45625Q165.58823 245.7375 165.93198 246.26875Q166.27573 246.78438 166.46323 247.53438Q166.65073 248.28438 166.65073 249.56563Q166.65073 251.08125 166.33823 252.00313Q166.04135 252.925 165.41635 253.44063Q164.80698 253.94063 163.85385 253.94063Q162.61948 253.94063 161.90073 253.05Q161.05698 251.9875 161.05698 249.56563ZM162.1351 249.56563Q162.1351 251.675 162.6351 252.37813Q163.1351 253.08125 163.85385 253.08125Q164.58823 253.08125 165.0726 252.37813Q165.5726 251.675 165.5726 249.56563Q165.5726 247.44063 165.0726 246.75313Q164.58823 246.05 163.83823 246.05Q163.11948 246.05 162.68198 246.65938Q162.1351 247.44063 162.1351 249.56563ZM168.11948 246.33125L168.11948 245.31563L173.68198 245.31563L173.68198 246.14375Q172.86948 247.01875 172.05698 248.47188Q171.2601 249.90938 170.8226 251.44063Q170.49448 252.51875 170.41635 253.8L169.3226 253.8Q169.33823 252.78438 169.71323 251.34688Q170.10385 249.90938 170.80698 248.58125Q171.52573 247.25313 172.33823 246.33125L168.11948 246.33125Z" fill-rule="nonzero"/><path fill="#000000" d="M213.51398 252.78438L213.51398 253.8L207.82648 253.8Q207.82648 253.425 207.95148 253.06563Q208.17023 252.4875 208.63898 251.925Q209.12335 251.3625 210.0296 250.62813Q211.43585 249.47188 211.92023 248.8Q212.42023 248.12813 212.42023 247.53438Q212.42023 246.90938 211.9671 246.4875Q211.51398 246.05 210.79523 246.05Q210.0296 246.05 209.57648 246.50313Q209.12335 246.95625 209.10773 247.76875L208.0296 247.65938Q208.13898 246.44063 208.85773 245.81563Q209.5921 245.175 210.82648 245.175Q212.06085 245.175 212.7796 245.8625Q213.49835 246.55 213.49835 247.56563Q213.49835 248.08125 213.2796 248.58125Q213.07648 249.06563 212.57648 249.62813Q212.0921 250.175 210.9671 251.12813Q210.01398 251.925 209.73273 252.22188Q209.4671 252.50313 209.29523 252.78438L213.51398 252.78438ZM214.9671 249.56563Q214.9671 248.03438 215.2796 247.1125Q215.5921 246.175 216.20148 245.675Q216.82648 245.175 217.76398 245.175Q218.45148 245.175 218.9671 245.45625Q219.49835 245.7375 219.8421 246.26875Q220.18585 246.78438 220.37335 247.53438Q220.56085 248.28438 220.56085 249.56563Q220.56085 251.08125 220.24835 252.00313Q219.95148 252.925 219.32648 253.44063Q218.7171 253.94063 217.76398 253.94063Q216.5296 253.94063 215.81085 253.05Q214.9671 251.9875 214.9671 249.56563ZM216.04523 249.56563Q216.04523 251.675 216.54523 252.37813Q217.04523 253.08125 217.76398 253.08125Q218.49835 253.08125 218.98273 252.37813Q219.48273 251.675 219.48273 249.56563Q219.48273 247.44063 218.98273 246.75313Q218.49835 246.05 217.74835 246.05Q217.0296 246.05 216.5921 246.65938Q216.04523 247.44063 216.04523 249.56563ZM227.51398 252.78438L227.51398 253.8L221.82648 253.8Q221.82648 253.425 221.95148 253.06563Q222.17023 252.4875 222.63898 251.925Q223.12335 251.3625 224.0296 250.62813Q225.43585 249.47188 225.92023 248.8Q226.42023 248.12813 226.42023 247.53438Q226.42023 246.90938 225.9671 246.4875Q225.51398 246.05 224.79523 246.05Q224.0296 246.05 223.57648 246.50313Q223.12335 246.95625 223.10773 247.76875L222.0296 247.65938Q222.13898 246.44063 222.85773 245.81563Q223.5921 245.175 224.82648 245.175Q226.06085 245.175 226.7796 245.8625Q227.49835 246.55 227.49835 247.56563Q227.49835 248.08125 227.2796 248.58125Q227.07648 249.06563 226.57648 249.62813Q226.0921 250.175 224.9671 251.12813Q224.01398 251.925 223.73273 252.22188Q223.4671 252.50313 223.29523 252.78438L227.51398 252.78438ZM232.3421 253.8L232.3421 251.7375L228.62335 251.7375L228.62335 250.76875L232.54523 245.20625L233.4046 245.20625L233.4046 250.76875L234.56085 250.76875L234.56085 251.7375L233.4046 251.7375L233.4046 253.8L232.3421 253.8ZM232.3421 250.76875L232.3421 246.90938L229.6546 250.76875L232.3421 250.76875ZM235.8421 251.22188L235.8421 250.15938L239.0921 250.15938L239.0921 251.22188L235.8421 251.22188ZM239.9671 249.56563Q239.9671 248.03438 240.2796 247.1125Q240.5921 246.175 241.20148 245.675Q241.82648 245.175 242.76398 245.175Q243.45148 245.175 243.9671 245.45625Q244.49835 245.7375 244.8421 246.26875Q245.18585 246.78438 245.37335 247.53438Q245.56085 248.28438 245.56085 249.56563Q245.56085 251.08125 245.24835 252.00313Q244.95148 252.925 244.32648 253.44063Q243.7171 253.94063 242.76398 253.94063Q241.5296 253.94063 240.81085 253.05Q239.9671 251.9875 239.9671 249.56563ZM241.04523 249.56563Q241.04523 251.675 241.54523 252.37813Q242.04523 253.08125 242.76398 253.08125Q243.49835 253.08125 243.98273 252.37813Q244.48273 251.675 244.48273 249.56563Q244.48273 247.44063 243.98273 246.75313Q243.49835 246.05 242.74835 246.05Q242.0296 246.05 241.5921 246.65938Q241.04523 247.44063 241.04523 249.56563ZM250.93585 253.8L249.88898 253.8L249.88898 247.08125Q249.49835 247.44063 248.87335 247.81563Q248.26398 248.175 247.7796 248.34688L247.7796 247.33125Q248.6546 246.90938 249.31085 246.33125Q249.98273 245.7375 250.26398 245.175L250.93585 245.175L250.93585 253.8ZM253.8421 251.22188L253.8421 250.15938L257.0921 250.15938L257.0921 251.22188L253.8421 251.22188ZM261.93585 253.8L260.88898 253.8L260.88898 247.08125Q260.49835 247.44063 259.87335 247.81563Q259.26398 248.175 258.7796 248.34688L258.7796 247.33125Q259.6546 246.90938 260.31085 246.33125Q260.98273 245.7375 261.26398 245.175L261.93585 245.175L261.93585 253.8ZM268.3421 253.8L268.3421 251.7375L264.62335 251.7375L264.62335 250.76875L268.54523 245.20625L269.4046 245.20625L269.4046 250.76875L270.56085 250.76875L270.56085 251.7375L269.4046 251.7375L269.4046 253.8L268.3421 253.8ZM268.3421 250.76875L268.3421 246.90938L265.6546 250.76875L268.3421 250.76875Z" fill-rule="nonzero"/><path fill="#000000" d="M310.42407 252.78438L310.42407 253.8L304.73657 253.8Q304.73657 253.425 304.86157 253.06563Q305.08032 252.4875 305.54907 251.925Q306.03345 251.3625 306.9397 250.62813Q308.34595 249.47188 308.83032 248.8Q309.33032 248.12813 309.33032 247.53438Q309.33032 246.90938 308.8772 246.4875Q308.42407 246.05 307.70532 246.05Q306.9397 246.05 306.48657 246.50313Q306.03345 246.95625 306.01782 247.76875L304.9397 247.65938Q305.04907 246.44063 305.76782 245.81563Q306.5022 245.175 307.73657 245.175Q308.97095 245.175 309.6897 245.8625Q310.40845 246.55 310.40845 247.56563Q310.40845 248.08125 310.1897 248.58125Q309.98657 249.06563 309.48657 249.62813Q309.0022 250.175 307.8772 251.12813Q306.92407 251.925 306.64282 252.22188Q306.3772 252.50313 306.20532 252.78438L310.42407 252.78438ZM311.8772 249.56563Q311.8772 248.03438 312.1897 247.1125Q312.5022 246.175 313.11157 245.675Q313.73657 245.175 314.67407 245.175Q315.36157 245.175 315.8772 245.45625Q316.40845 245.7375 316.7522 246.26875Q317.09595 246.78438 317.28345 247.53438Q317.47095 248.28438 317.47095 249.56563Q317.47095 251.08125 317.15845 252.00313Q316.86157 252.925 316.23657 253.44063Q315.6272 253.94063 314.67407 253.94063Q313.4397 253.94063 312.72095 253.05Q311.8772 251.9875 311.8772 249.56563ZM312.95532 249.56563Q312.95532 251.675 313.45532 252.37813Q313.95532 253.08125 314.67407 253.08125Q315.40845 253.08125 315.89282 252.37813Q316.39282 251.675 316.39282 249.56563Q316.39282 247.44063 315.89282 246.75313Q315.40845 246.05 314.65845 246.05Q313.9397 246.05 313.5022 246.65938Q312.95532 247.44063 312.95532 249.56563ZM324.42407 252.78438L324.42407 253.8L318.73657 253.8Q318.73657 253.425 318.86157 253.06563Q319.08032 252.4875 319.54907 251.925Q320.03345 251.3625 320.9397 250.62813Q322.34595 249.47188 322.83032 248.8Q323.33032 248.12813 323.33032 247.53438Q323.33032 246.90938 322.8772 246.4875Q322.42407 246.05 321.70532 246.05Q320.9397 246.05 320.48657 246.50313Q320.03345 246.95625 320.01782 247.76875L318.9397 247.65938Q319.04907 246.44063 319.76782 245.81563Q320.5022 245.175 321.73657 245.175Q322.97095 245.175 323.6897 245.8625Q324.40845 246.55 324.40845 247.56563Q324.40845 248.08125 324.1897 248.58125Q323.98657 249.06563 323.48657 249.62813Q323.0022 250.175 321.8772 251.12813Q320.92407 251.925 320.64282 252.22188Q320.3772 252.50313 320.20532 252.78438L324.42407 252.78438ZM329.2522 253.8L329.2522 251.7375L325.53345 251.7375L325.53345 250.76875L329.45532 245.20625L330.3147 245.20625L330.3147 250.76875L331.47095 250.76875L331.47095 251.7375L330.3147 251.7375L330.3147 253.8L329.2522 253.8ZM329.2522 250.76875L329.2522 246.90938L326.5647 250.76875L329.2522 250.76875ZM332.7522 251.22188L332.7522 250.15938L336.0022 250.15938L336.0022 251.22188L332.7522 251.22188ZM336.8772 249.56563Q336.8772 248.03438 337.1897 247.1125Q337.5022 246.175 338.11157 245.675Q338.73657 245.175 339.67407 245.175Q340.36157 245.175 340.8772 245.45625Q341.40845 245.7375 341.7522 246.26875Q342.09595 246.78438 342.28345 247.53438Q342.47095 248.28438 342.47095 249.56563Q342.47095 251.08125 342.15845 252.00313Q341.86157 252.925 341.23657 253.44063Q340.6272 253.94063 339.67407 253.94063Q338.4397 253.94063 337.72095 253.05Q336.8772 251.9875 336.8772 249.56563ZM337.95532 249.56563Q337.95532 251.675 338.45532 252.37813Q338.95532 253.08125 339.67407 253.08125Q340.40845 253.08125 340.89282 252.37813Q341.39282 251.675 341.39282 249.56563Q341.39282 247.44063 340.89282 246.75313Q340.40845 246.05 339.65845 246.05Q338.9397 246.05 338.5022 246.65938Q337.95532 247.44063 337.95532 249.56563ZM347.84595 253.8L346.79907 253.8L346.79907 247.08125Q346.40845 247.44063 345.78345 247.81563Q345.17407 248.175 344.6897 248.34688L344.6897 247.33125Q345.5647 246.90938 346.22095 246.33125Q346.89282 245.7375 347.17407 245.175L347.84595 245.175L347.84595 253.8ZM350.7522 251.22188L350.7522 250.15938L354.0022 250.15938L354.0022 251.22188L350.7522 251.22188ZM360.42407 252.78438L360.42407 253.8L354.73657 253.8Q354.73657 253.425 354.86157 253.06563Q355.08032 252.4875 355.54907 251.925Q356.03345 251.3625 356.9397 250.62813Q358.34595 249.47188 358.83032 248.8Q359.33032 248.12813 359.33032 247.53438Q359.33032 246.90938 358.8772 246.4875Q358.42407 246.05 357.70532 246.05Q356.9397 246.05 356.48657 246.50313Q356.03345 246.95625 356.01782 247.76875L354.9397 247.65938Q355.04907 246.44063 355.76782 245.81563Q356.5022 245.175 357.73657 245.175Q358.97095 245.175 359.6897 245.8625Q360.40845 246.55 360.40845 247.56563Q360.40845 248.08125 360.1897 248.58125Q359.98657 249.06563 359.48657 249.62813Q359.0022 250.175 357.8772 251.12813Q356.92407 251.925 356.64282 252.22188Q356.3772 252.50313 356.20532 252.78438L360.42407 252.78438ZM365.84595 253.8L364.79907 253.8L364.79907 247.08125Q364.40845 247.44063 363.78345 247.81563Q363.17407 248.175 362.6897 248.34688L362.6897 247.33125Q363.5647 246.90938 364.22095 246.33125Q364.89282 245.7375 365.17407 245.175L365.84595 245.175L365.84595 253.8Z" fill-rule="nonzero"/><path fill="#000000" d="M407.3342 252.78438L407.3342 253.8L401.6467 253.8Q401.6467 253.425 401.7717 253.06563Q401.99045 252.4875 402.4592 251.925Q402.94357 251.3625 403.84982 250.62813Q405.25607 249.47188 405.74045 248.8Q406.24045 248.12813 406.24045 247.53438Q406.24045 246.90938 405.78732 246.4875Q405.3342 246.05 404.61545 246.05Q403.84982 246.05 403.3967 246.50313Q402.94357 246.95625 402.92795 247.76875L401.84982 247.65938Q401.9592 246.44063 402.67795 245.81563Q403.41232 245.175 404.6467 245.175Q405.88107 245.175 406.59982 245.8625Q407.31857 246.55 407.31857 247.56563Q407.31857 248.08125 407.09982 248.58125Q406.8967 249.06563 406.3967 249.62813Q405.91232 250.175 404.78732 251.12813Q403.8342 251.925 403.55295 252.22188Q403.28732 252.50313 403.11545 252.78438L407.3342 252.78438ZM408.78732 249.56563Q408.78732 248.03438 409.09982 247.1125Q409.41232 246.175 410.0217 245.675Q410.6467 245.175 411.5842 245.175Q412.2717 245.175 412.78732 245.45625Q413.31857 245.7375 413.66232 246.26875Q414.00607 246.78438 414.19357 247.53438Q414.38107 248.28438 414.38107 249.56563Q414.38107 251.08125 414.06857 252.00313Q413.7717 252.925 413.1467 253.44063Q412.53732 253.94063 411.5842 253.94063Q410.34982 253.94063 409.63107 253.05Q408.78732 251.9875 408.78732 249.56563ZM409.86545 249.56563Q409.86545 251.675 410.36545 252.37813Q410.86545 253.08125 411.5842 253.08125Q412.31857 253.08125 412.80295 252.37813Q413.30295 251.675 413.30295 249.56563Q413.30295 247.44063 412.80295 246.75313Q412.31857 246.05 411.56857 246.05Q410.84982 246.05 410.41232 246.65938Q409.86545 247.44063 409.86545 249.56563ZM421.3342 252.78438L421.3342 253.8L415.6467 253.8Q415.6467 253.425 415.7717 253.06563Q415.99045 252.4875 416.4592 251.925Q416.94357 251.3625 417.84982 250.62813Q419.25607 249.47188 419.74045 248.8Q420.24045 248.12813 420.24045 247.53438Q420.24045 246.90938 419.78732 246.4875Q419.3342 246.05 418.61545 246.05Q417.84982 246.05 417.3967 246.50313Q416.94357 246.95625 416.92795 247.76875L415.84982 247.65938Q415.9592 246.44063 416.67795 245.81563Q417.41232 245.175 418.6467 245.175Q419.88107 245.175 420.59982 245.8625Q421.31857 246.55 421.31857 247.56563Q421.31857 248.08125 421.09982 248.58125Q420.8967 249.06563 420.3967 249.62813Q419.91232 250.175 418.78732 251.12813Q417.8342 251.925 417.55295 252.22188Q417.28732 252.50313 417.11545 252.78438L421.3342 252.78438ZM426.16232 253.8L426.16232 251.7375L422.44357 251.7375L422.44357 250.76875L426.36545 245.20625L427.22482 245.20625L427.22482 250.76875L428.38107 250.76875L428.38107 251.7375L427.22482 251.7375L427.22482 253.8L426.16232 253.8ZM426.16232 250.76875L426.16232 246.90938L423.47482 250.76875L426.16232 250.76875ZM429.66232 251.22188L429.66232 250.15938L432.91232 250.15938L432.91232 251.22188L429.66232 251.22188ZM433.78732 249.56563Q433.78732 248.03438 434.09982 247.1125Q434.41232 246.175 435.0217 245.675Q435.6467 245.175 436.5842 245.175Q437.2717 245.175 437.78732 245.45625Q438.31857 245.7375 438.66232 246.26875Q439.00607 246.78438 439.19357 247.53438Q439.38107 248.28438 439.38107 249.56563Q439.38107 251.08125 439.06857 252.00313Q438.7717 252.925 438.1467 253.44063Q437.53732 253.94063 436.5842 253.94063Q435.34982 253.94063 434.63107 253.05Q433.78732 251.9875 433.78732 249.56563ZM434.86545 249.56563Q434.86545 251.675 435.36545 252.37813Q435.86545 253.08125 436.5842 253.08125Q437.31857 253.08125 437.80295 252.37813Q438.30295 251.675 438.30295 249.56563Q438.30295 247.44063 437.80295 246.75313Q437.31857 246.05 436.56857 246.05Q435.84982 246.05 435.41232 246.65938Q434.86545 247.44063 434.86545 249.56563ZM444.75607 253.8L443.7092 253.8L443.7092 247.08125Q443.31857 247.44063 442.69357 247.81563Q442.0842 248.175 441.59982 248.34688L441.59982 247.33125Q442.47482 246.90938 443.13107 246.33125Q443.80295 245.7375 444.0842 245.175L444.75607 245.175L444.75607 253.8ZM447.66232 251.22188L447.66232 250.15938L450.91232 250.15938L450.91232 251.22188L447.66232 251.22188ZM457.3342 252.78438L457.3342 253.8L451.6467 253.8Q451.6467 253.425 451.7717 253.06563Q451.99045 252.4875 452.4592 251.925Q452.94357 251.3625 453.84982 250.62813Q455.25607 249.47188 455.74045 248.8Q456.24045 248.12813 456.24045 247.53438Q456.24045 246.90938 455.78732 246.4875Q455.3342 246.05 454.61545 246.05Q453.84982 246.05 453.3967 246.50313Q452.94357 246.95625 452.92795 247.76875L451.84982 247.65938Q451.9592 246.44063 452.67795 245.81563Q453.41232 245.175 454.6467 245.175Q455.88107 245.175 456.59982 245.8625Q457.31857 246.55 457.31857 247.56563Q457.31857 248.08125 457.09982 248.58125Q456.8967 249.06563 456.3967 249.62813Q455.91232 250.175 454.78732 251.12813Q453.8342 251.925 453.55295 252.22188Q453.28732 252.50313 453.11545 252.78438L457.3342 252.78438ZM460.41232 249.14375Q459.75607 248.89375 459.42795 248.45625Q459.11545 248.00313 459.11545 247.39375Q459.11545 246.45625 459.78732 245.81563Q460.47482 245.175 461.5842 245.175Q462.7092 245.175 463.3967 245.83125Q464.0842 246.4875 464.0842 247.425Q464.0842 248.01875 463.7717 248.45625Q463.4592 248.89375 462.81857 249.14375Q463.61545 249.39375 464.0217 249.97188Q464.42795 250.55 464.42795 251.34688Q464.42795 252.44063 463.6467 253.19063Q462.88107 253.94063 461.59982 253.94063Q460.3342 253.94063 459.55295 253.19063Q458.7717 252.44063 458.7717 251.31563Q458.7717 250.47188 459.19357 249.90938Q459.63107 249.34688 460.41232 249.14375ZM460.19357 247.34688Q460.19357 247.95625 460.5842 248.34688Q460.99045 248.7375 461.61545 248.7375Q462.22482 248.7375 462.61545 248.3625Q463.00607 247.97188 463.00607 247.40938Q463.00607 246.83125 462.59982 246.44063Q462.19357 246.03438 461.59982 246.03438Q460.99045 246.03438 460.5842 246.425Q460.19357 246.81563 460.19357 247.34688ZM459.86545 251.31563Q459.86545 251.76875 460.06857 252.19063Q460.28732 252.6125 460.7092 252.84688Q461.13107 253.08125 461.61545 253.08125Q462.36545 253.08125 462.84982 252.59688Q463.34982 252.1125 463.34982 251.3625Q463.34982 250.59688 462.84982 250.09688Q462.34982 249.59688 461.5842 249.59688Q460.8342 249.59688 460.34982 250.09688Q459.86545 250.58125 459.86545 251.31563Z" fill-rule="nonzero"/><path fill="#4285f4" d="M140.0 56.333332C140.0 59.64704 137.3137 62.333332 134.0 62.333332C130.6863 62.333332 128.0 59.64704 128.0 56.333332C128.0 53.019627 130.6863 50.333332 134.0 50.333332C137.3137 50.333332 140.0 53.019627 140.0 56.333332Z" fill-rule="nonzero"/><path fill="#1a1a1a" d="M153.95312 57.708332L157.0 57.614582L156.0625 56.911457L156.67188 56.442707Q158.17188 57.333332 159.0625 58.317707L158.35938 58.927082L157.70312 58.223957L154.42188 58.505207L154.42188 61.364582L153.48438 61.364582L153.48438 58.552082L149.64062 58.786457Q149.59375 59.114582 149.40625 58.927082L149.17188 57.802082L152.73438 57.755207L153.0625 57.520832L150.85938 56.395832L151.32812 55.692707L152.17188 56.114582L153.25 55.036457L150.90625 55.036457L150.90625 55.364582L150.10938 55.364582L150.10938 51.005207L157.79688 51.005207L157.79688 55.223957L157.0 55.223957L157.0 55.036457L153.85938 55.036457L154.1875 55.223957Q154.42188 55.458332 154.0 55.411457L152.875 56.489582L153.76562 56.958332L155.54688 55.317707L156.29688 55.833332Q156.48438 56.114582 156.10938 56.067707L153.95312 57.708332ZM156.25 58.786457Q157.375 59.583332 158.92188 60.052082L158.54688 60.989582Q156.90625 60.520832 155.6875 59.489582L156.25 58.786457ZM152.45312 59.583332Q152.54688 59.911457 152.21875 59.770832Q150.67188 60.989582 149.6875 61.317707L149.21875 60.380207Q150.67188 59.817707 151.89062 58.786457L152.45312 59.583332ZM154.32812 54.286457L157.0 54.286457L157.0 53.395832L154.32812 53.395832L154.32812 54.286457ZM153.53125 53.395832L150.90625 53.395832L150.90625 54.286457L153.53125 54.286457L153.53125 53.395832ZM157.0 51.755207L154.32812 51.755207L154.32812 52.645832L157.0 52.645832L157.0 51.755207ZM153.53125 51.755207L150.90625 51.755207L150.90625 52.645832L153.53125 52.645832L153.53125 51.755207ZM164.64062 51.473957Q164.73438 51.614582 164.3125 51.567707L163.375 51.802082L163.375 53.489582L164.54688 53.489582L164.54688 54.380207L163.375 54.380207L163.375 55.598957Q164.45312 56.302082 164.875 56.723957L164.40625 57.614582Q163.89062 57.145832 163.375 56.677082L163.375 61.458332L162.4375 61.458332L162.4375 56.723957Q161.78125 58.223957 161.07812 58.833332L160.42188 58.083332Q161.875 56.536457 162.4375 54.380207L160.79688 54.380207L160.79688 53.489582L162.4375 53.489582L162.4375 52.036457Q161.40625 52.223957 160.89062 52.317707L160.65625 51.473957Q162.76562 51.192707 164.125 50.630207L164.64062 51.473957ZM164.35938 60.661457Q165.85938 60.239582 166.75 59.583332L165.4375 59.583332L165.4375 55.411457L170.5 55.411457L170.5 59.583332L169.0 59.583332Q169.9375 60.145832 171.25 60.520832L170.92188 61.364582Q169.65625 61.130207 168.4375 60.239582L168.90625 59.583332L166.84375 59.583332L167.35938 60.333332Q167.5 60.614582 167.07812 60.473957Q165.71875 61.270832 164.73438 61.552082L164.35938 60.661457ZM168.39062 54.098957L171.34375 54.098957L171.34375 54.848957L164.78125 54.848957L164.78125 54.098957L167.45312 54.098957L167.45312 53.489582L165.48438 53.489582L165.48438 52.927082L167.45312 52.927082L167.45312 52.364582L164.96875 52.364582L164.96875 51.614582L167.45312 51.614582L167.45312 50.677082L168.34375 50.677082Q168.71875 50.723957 168.39062 50.958332L168.39062 51.614582L171.01562 51.614582L171.01562 52.364582L168.39062 52.364582L168.39062 52.927082L170.45312 52.927082L170.45312 53.489582L168.39062 53.489582L168.39062 54.098957ZM166.23438 59.020832L169.70312 59.020832L169.70312 58.364582L166.23438 58.364582L166.23438 59.020832ZM166.23438 56.583332L169.70312 56.583332L169.70312 55.973957L166.23438 55.973957L166.23438 56.583332ZM166.23438 57.802082L169.70312 57.802082L169.70312 57.145832L166.23438 57.145832L166.23438 57.802082ZM180.4375 60.005207Q179.26562 61.036457 178.09375 61.411457L177.57812 60.473957Q178.84375 60.098957 179.73438 59.395832Q178.89062 58.411457 178.42188 57.239582L177.71875 57.239582L177.71875 56.348957L181.75 56.348957L181.84375 56.161457L182.64062 56.770832Q182.6875 56.958332 182.40625 57.005207Q181.89062 58.364582 181.04688 59.348957Q181.75 59.911457 183.48438 60.333332L183.15625 61.317707Q181.79688 61.036457 180.4375 60.005207ZM179.3125 57.239582Q179.92188 58.411457 180.39062 58.786457Q180.8125 58.364582 181.375 57.239582L179.3125 57.239582ZM176.54688 59.489582L176.54688 58.692707L174.8125 58.692707L174.8125 59.630207L176.54688 59.489582ZM177.34375 61.411457L176.54688 61.411457L176.54688 60.239582L173.26562 60.708332Q173.03125 61.036457 172.98438 60.848957L172.70312 59.723957L174.01562 59.677082L174.01562 55.645832L172.5625 55.645832L172.5625 54.895832L183.29688 54.895832L183.29688 55.645832L177.34375 55.645832L177.34375 61.411457ZM174.34375 54.333332L174.34375 50.911457L181.51562 50.911457L181.51562 54.333332L174.34375 54.333332ZM174.8125 55.645832L174.8125 56.395832L176.54688 56.395832L176.54688 55.645832L174.8125 55.645832ZM174.8125 57.145832L174.8125 57.942707L176.54688 57.942707L176.54688 57.145832L174.8125 57.145832ZM175.28125 52.973957L175.28125 53.583332L180.57812 53.583332L180.57812 52.973957L175.28125 52.973957ZM175.28125 51.661457L175.28125 52.223957L180.57812 52.223957L180.57812 51.661457L175.28125 51.661457ZM187.60938 51.286457Q187.23438 52.880207 187.0 53.630207L187.1875 53.677082Q187.32812 53.817707 187.09375 53.958332L187.09375 61.317707L186.15625 61.317707L186.15625 55.364582Q185.875 55.880207 185.21875 56.630207L184.5625 55.880207Q186.25 54.145832 186.67188 50.817707L187.75 51.052082Q187.9375 51.239582 187.60938 51.286457ZM192.4375 52.364582L192.4375 54.567707L194.82812 54.380207L194.82812 55.270832L192.48438 55.458332Q192.67188 57.380207 193.28125 58.364582Q193.84375 59.302082 194.17188 59.302082Q194.45312 59.302082 194.54688 58.223957L195.4375 58.880207Q195.20312 60.708332 194.3125 60.708332Q193.51562 60.708332 192.53125 59.114582Q191.82812 57.989582 191.5 55.505207L189.48438 55.645832L189.48438 58.270832L191.45312 57.708332L191.45312 58.598957L188.125 59.583332Q188.07812 59.911457 187.89062 59.723957L187.65625 58.598957L188.54688 58.458332L188.54688 51.661457L189.39062 51.989582Q192.76562 51.427082 193.79688 50.864582L194.45312 51.848957Q194.5 52.177082 194.17188 51.989582L192.4375 52.364582ZM188.875 60.052082L193.14062 60.052082L193.14062 60.942707L188.875 60.942707L188.875 60.052082ZM191.5 54.614582L191.5 52.505207L189.48438 52.786457L189.48438 54.755207L191.5 54.614582Z" fill-rule="nonzero"/><path fill="#ea4335" d="M224.0 56.333332C224.0 59.64704 221.3137 62.333332 218.0 62.333332C214.6863 62.333332 212.0 59.64704 212.0 56.333332C212.0 53.019627 214.6863 50.333332 218.0 50.333332C221.3137 50.333332 224.0 53.019627 224.0 56.333332Z" fill-rule="nonzero"/><path fill="#1a1a1a" d="M237.95312 57.708332L241.0 57.614582L240.0625 56.911457L240.67188 56.442707Q242.17188 57.333332 243.0625 58.317707L242.35938 58.927082L241.70312 58.223957L238.42188 58.505207L238.42188 61.364582L237.48438 61.364582L237.48438 58.552082L233.64062 58.786457Q233.59375 59.114582 233.40625 58.927082L233.17188 57.802082L236.73438 57.755207L237.0625 57.520832L234.85938 56.395832L235.32812 55.692707L236.17188 56.114582L237.25 55.036457L234.90625 55.036457L234.90625 55.364582L234.10938 55.364582L234.10938 51.005207L241.79688 51.005207L241.79688 55.223957L241.0 55.223957L241.0 55.036457L237.85938 55.036457L238.1875 55.223957Q238.42188 55.458332 238.0 55.411457L236.875 56.489582L237.76562 56.958332L239.54688 55.317707L240.29688 55.833332Q240.48438 56.114582 240.10938 56.067707L237.95312 57.708332ZM240.25 58.786457Q241.375 59.583332 242.92188 60.052082L242.54688 60.989582Q240.90625 60.520832 239.6875 59.489582L240.25 58.786457ZM236.45312 59.583332Q236.54688 59.911457 236.21875 59.770832Q234.67188 60.989582 233.6875 61.317707L233.21875 60.380207Q234.67188 59.817707 235.89062 58.786457L236.45312 59.583332ZM238.32812 54.286457L241.0 54.286457L241.0 53.395832L238.32812 53.395832L238.32812 54.286457ZM237.53125 53.395832L234.90625 53.395832L234.90625 54.286457L237.53125 54.286457L237.53125 53.395832ZM241.0 51.755207L238.32812 51.755207L238.32812 52.645832L241.0 52.645832L241.0 51.755207ZM237.53125 51.755207L234.90625 51.755207L234.90625 52.645832L237.53125 52.645832L237.53125 51.755207ZM248.64062 51.473957Q248.73438 51.614582 248.3125 51.567707L247.375 51.802082L247.375 53.489582L248.54688 53.489582L248.54688 54.380207L247.375 54.380207L247.375 55.598957Q248.45312 56.302082 248.875 56.723957L248.40625 57.614582Q247.89062 57.145832 247.375 56.677082L247.375 61.458332L246.4375 61.458332L246.4375 56.723957Q245.78125 58.223957 245.07812 58.833332L244.42188 58.083332Q245.875 56.536457 246.4375 54.380207L244.79688 54.380207L244.79688 53.489582L246.4375 53.489582L246.4375 52.036457Q245.40625 52.223957 244.89062 52.317707L244.65625 51.473957Q246.76562 51.192707 248.125 50.630207L248.64062 51.473957ZM248.35938 60.661457Q249.85938 60.239582 250.75 59.583332L249.4375 59.583332L249.4375 55.411457L254.5 55.411457L254.5 59.583332L253.0 59.583332Q253.9375 60.145832 255.25 60.520832L254.92188 61.364582Q253.65625 61.130207 252.4375 60.239582L252.90625 59.583332L250.84375 59.583332L251.35938 60.333332Q251.5 60.614582 251.07812 60.473957Q249.71875 61.270832 248.73438 61.552082L248.35938 60.661457ZM252.39062 54.098957L255.34375 54.098957L255.34375 54.848957L248.78125 54.848957L248.78125 54.098957L251.45312 54.098957L251.45312 53.489582L249.48438 53.489582L249.48438 52.927082L251.45312 52.927082L251.45312 52.364582L248.96875 52.364582L248.96875 51.614582L251.45312 51.614582L251.45312 50.677082L252.34375 50.677082Q252.71875 50.723957 252.39062 50.958332L252.39062 51.614582L255.01562 51.614582L255.01562 52.364582L252.39062 52.364582L252.39062 52.927082L254.45312 52.927082L254.45312 53.489582L252.39062 53.489582L252.39062 54.098957ZM250.23438 59.020832L253.70312 59.020832L253.70312 58.364582L250.23438 58.364582L250.23438 59.020832ZM250.23438 56.583332L253.70312 56.583332L253.70312 55.973957L250.23438 55.973957L250.23438 56.583332ZM250.23438 57.802082L253.70312 57.802082L253.70312 57.145832L250.23438 57.145832L250.23438 57.802082ZM264.4375 60.005207Q263.26562 61.036457 262.09375 61.411457L261.57812 60.473957Q262.84375 60.098957 263.73438 59.395832Q262.89062 58.411457 262.42188 57.239582L261.71875 57.239582L261.71875 56.348957L265.75 56.348957L265.84375 56.161457L266.64062 56.770832Q266.6875 56.958332 266.40625 57.005207Q265.89062 58.364582 265.04688 59.348957Q265.75 59.911457 267.48438 60.333332L267.15625 61.317707Q265.79688 61.036457 264.4375 60.005207ZM263.3125 57.239582Q263.92188 58.411457 264.39062 58.786457Q264.8125 58.364582 265.375 57.239582L263.3125 57.239582ZM260.54688 59.489582L260.54688 58.692707L258.8125 58.692707L258.8125 59.630207L260.54688 59.489582ZM261.34375 61.411457L260.54688 61.411457L260.54688 60.239582L257.26562 60.708332Q257.03125 61.036457 256.98438 60.848957L256.70312 59.723957L258.01562 59.677082L258.01562 55.645832L256.5625 55.645832L256.5625 54.895832L267.29688 54.895832L267.29688 55.645832L261.34375 55.645832L261.34375 61.411457ZM258.34375 54.333332L258.34375 50.911457L265.51562 50.911457L265.51562 54.333332L258.34375 54.333332ZM258.8125 55.645832L258.8125 56.395832L260.54688 56.395832L260.54688 55.645832L258.8125 55.645832ZM258.8125 57.145832L258.8125 57.942707L260.54688 57.942707L260.54688 57.145832L258.8125 57.145832ZM259.28125 52.973957L259.28125 53.583332L264.57812 53.583332L264.57812 52.973957L259.28125 52.973957ZM259.28125 51.661457L259.28125 52.223957L264.57812 52.223957L264.57812 51.661457L259.28125 51.661457ZM274.42188 50.536457Q274.89062 50.630207 274.46875 50.911457L274.46875 51.661457L279.15625 51.661457L279.15625 52.552082L268.70312 52.552082L268.70312 51.661457L273.39062 51.661457L273.39062 50.536457L274.42188 50.536457ZM276.20312 53.911457L271.70312 53.911457L271.70312 54.895832L276.20312 54.895832L276.20312 53.911457ZM270.90625 55.645832L270.90625 53.161457L277.0 53.161457L277.0 55.645832L270.90625 55.645832ZM278.59375 60.520832Q278.59375 61.270832 277.84375 61.270832L276.95312 61.270832L276.76562 60.380207L277.46875 60.380207Q277.65625 60.380207 277.65625 60.192707L277.65625 57.192707L270.25 57.192707L270.25 61.411457L269.3125 61.411457L269.3125 56.302082L278.59375 56.302082L278.59375 60.520832ZM272.35938 60.145832L272.35938 60.661457L271.5625 60.661457L271.5625 57.755207L276.34375 57.755207L276.34375 60.145832L272.35938 60.145832ZM272.35938 59.395832L275.54688 59.395832L275.54688 58.505207L272.35938 58.505207L272.35938 59.395832Z" fill-rule="nonzero"/><path stroke="#fbbc04" stroke-width="4.0" stroke-linecap="butt" d="M296.0 56.333332L308.0 56.333332" fill-rule="nonzero"/><path fill="#1a1a1a" d="M323.64062 59.536457Q324.15625 59.348957 325.14062 58.692707L322.46875 58.692707Q323.125 59.302082 323.64062 59.536457ZM319.70312 55.130207Q321.01562 54.145832 321.4375 52.692707L321.90625 52.786457L321.90625 52.317707L320.21875 52.317707L320.21875 51.567707L321.90625 51.567707L321.90625 50.583332L322.65625 50.583332Q323.03125 50.630207 322.70312 50.864582L322.70312 51.567707L324.34375 51.567707L324.34375 50.583332L325.09375 50.583332Q325.46875 50.630207 325.14062 50.864582L325.14062 51.567707L327.20312 51.567707L327.20312 52.317707L325.14062 52.317707L325.14062 52.880207L324.625 52.880207L324.34375 53.536457L327.0625 53.536457L327.0625 54.098957L324.39062 54.098957L324.39062 54.614582L326.5 54.614582L326.5 55.177082L324.39062 55.177082L324.39062 55.692707L326.5 55.692707L326.5 56.255207L324.39062 56.255207L324.39062 56.770832L327.29688 56.770832L327.29688 57.333332L320.96875 57.333332L320.96875 54.989582Q320.73438 55.411457 320.17188 55.833332L319.70312 55.130207ZM318.71875 56.677082Q318.0625 57.848957 317.125 58.927082L316.65625 57.895832Q317.96875 56.442707 318.53125 55.364582Q318.53125 54.661457 318.34375 54.145832Q317.92188 54.755207 317.03125 55.411457L316.5625 54.520832Q317.35938 53.958332 318.01562 53.161457Q317.5 52.223957 316.84375 51.427082L317.45312 50.817707Q318.10938 51.567707 318.625 52.364582Q319.04688 51.755207 319.42188 50.911457L320.17188 51.427082Q319.75 52.505207 319.09375 53.255207Q319.9375 56.630207 319.42188 59.817707Q319.1875 61.364582 318.15625 61.364582L317.45312 61.364582L317.3125 60.333332L317.875 60.333332Q318.34375 60.333332 318.53125 59.723957Q318.8125 58.692707 318.71875 56.677082ZM323.59375 60.380207Q321.57812 61.223957 319.89062 61.505207L319.5625 60.614582Q321.4375 60.333332 322.75 59.864582Q322.04688 59.348957 321.53125 58.692707L320.35938 58.692707L320.35938 57.942707L325.89062 57.942707L326.03125 57.802082L326.64062 58.552082L326.26562 58.739582Q325.28125 59.536457 324.53125 59.911457Q325.28125 60.239582 327.625 60.473957L327.39062 61.364582Q325.32812 61.177082 323.59375 60.380207ZM321.76562 54.614582L323.59375 54.614582L323.59375 54.098957L321.76562 54.098957L321.76562 54.614582ZM323.64062 53.536457L323.92188 52.645832L324.34375 52.739582L324.34375 52.317707L322.70312 52.317707L322.70312 52.880207L322.14062 52.880207L321.85938 53.536457L323.64062 53.536457ZM323.59375 55.692707L323.59375 55.177082L321.76562 55.177082L321.76562 55.692707L323.59375 55.692707ZM323.59375 56.770832L323.59375 56.255207L321.76562 56.255207L321.76562 56.770832L323.59375 56.770832ZM329.07812 54.755207L329.07812 53.864582L331.46875 53.864582L331.46875 52.317707L329.5 52.458332L329.26562 51.614582Q331.89062 51.473957 333.90625 51.052082L334.375 51.848957Q334.42188 52.177082 334.09375 51.989582L332.40625 52.177082L332.40625 53.864582L334.9375 53.864582L334.9375 54.755207L332.40625 54.755207L332.40625 55.786457Q333.85938 56.442707 334.75 57.380207L334.04688 58.270832Q333.34375 57.473957 332.40625 56.817707L332.40625 61.270832L331.46875 61.270832L331.46875 56.723957Q330.67188 58.130207 329.35938 59.208332L328.79688 58.223957Q330.67188 56.817707 331.375 54.755207L329.07812 54.755207ZM338.6875 51.192707Q339.0625 51.239582 338.73438 51.473957L338.73438 60.427082Q338.73438 61.177082 337.98438 61.177082L336.90625 61.177082L336.71875 60.286457L337.65625 60.286457Q337.79688 60.286457 337.79688 60.145832L337.79688 51.192707L338.6875 51.192707ZM336.29688 52.364582Q336.67188 52.411457 336.34375 52.645832L336.34375 58.927082L335.40625 58.927082L335.40625 52.364582L336.29688 52.364582ZM351.29688 54.661457L351.29688 55.552082L349.79688 55.552082Q350.35938 56.302082 351.57812 57.052082L351.10938 57.989582Q350.59375 57.661457 350.21875 57.333332L349.9375 60.380207Q349.84375 61.177082 349.14062 61.177082L348.15625 61.177082L347.96875 60.145832L348.625 60.145832Q349.0 60.145832 349.04688 59.770832L349.1875 58.083332L347.875 58.083332Q347.875 60.333332 345.34375 61.411457L344.82812 60.473957Q346.89062 59.770832 346.98438 58.083332L345.53125 58.083332L345.53125 57.333332Q345.15625 57.661457 344.6875 58.036457L344.17188 57.239582Q345.34375 56.442707 345.85938 55.552082L344.45312 55.552082L344.45312 54.661457L346.28125 54.661457Q346.46875 54.239582 346.60938 53.817707L344.875 53.817707L344.875 52.927082L346.84375 52.927082Q347.07812 51.333332 347.07812 50.583332L347.92188 50.677082Q348.29688 50.723957 347.92188 51.005207Q347.82812 51.802082 347.6875 52.927082L350.875 52.927082L350.875 53.817707L348.8125 53.817707Q349.0 54.239582 349.23438 54.661457L351.29688 54.661457ZM348.53125 52.364582Q348.95312 51.661457 349.28125 50.911457L350.125 51.286457Q350.45312 51.520832 350.03125 51.614582Q349.5625 52.458332 349.28125 52.786457L348.53125 52.364582ZM347.96875 57.192707L350.03125 57.192707Q349.28125 56.442707 348.76562 55.552082L346.84375 55.552082Q346.32812 56.536457 345.67188 57.192707L347.03125 57.192707L347.03125 55.927082L347.92188 55.927082Q348.29688 55.973957 347.96875 56.208332L347.96875 57.192707ZM348.29688 54.661457Q348.10938 54.333332 347.96875 53.817707L347.5 53.817707Q347.35938 54.333332 347.21875 54.661457L348.29688 54.661457ZM342.0625 54.802082L342.0625 56.630207L343.1875 56.630207L343.1875 54.802082L342.0625 54.802082ZM342.0625 52.083332L342.0625 53.911457L343.1875 53.911457L343.1875 52.083332L342.0625 52.083332ZM343.98438 60.661457Q343.98438 61.317707 343.42188 61.317707L342.57812 61.317707L342.39062 60.427082L343.0 60.427082Q343.1875 60.427082 343.1875 60.239582L343.1875 57.520832L342.0625 57.520832L342.0625 58.223957Q342.0625 60.005207 341.17188 61.317707L340.51562 60.567707Q341.26562 59.583332 341.26562 57.989582L341.26562 51.192707L343.98438 51.192707L343.98438 60.661457ZM345.71875 51.098957Q346.32812 51.614582 346.65625 52.223957L345.8125 52.786457Q345.39062 52.177082 344.92188 51.661457L345.71875 51.098957ZM362.07812 53.770832Q361.5625 54.427082 360.76562 55.036457L360.0625 54.380207Q360.95312 53.677082 361.375 53.020832L362.26562 53.583332Q362.40625 53.770832 362.07812 53.770832ZM361.1875 55.270832Q362.26562 55.786457 363.15625 56.536457L362.45312 57.380207Q361.5625 56.583332 360.57812 55.927082L361.1875 55.270832ZM355.65625 55.973957Q354.90625 56.770832 353.96875 57.520832Q353.92188 57.848957 353.73438 57.661457L353.07812 56.864582Q354.20312 56.161457 355.04688 55.317707L355.65625 55.973957ZM355.75 56.302082L356.40625 56.302082L357.25 55.458332Q356.78125 54.942707 355.84375 54.286457L356.35938 53.677082L356.6875 53.911457L357.57812 52.692707L358.23438 53.208332Q358.42188 53.442707 358.09375 53.395832L357.29688 54.333332L357.85938 54.848957L359.125 53.442707L359.73438 54.005207Q359.92188 54.239582 359.54688 54.192707L357.4375 56.302082L359.26562 56.067707L358.79688 55.458332L359.5 55.036457Q360.10938 55.692707 360.67188 56.817707L359.875 57.286457L359.64062 56.770832L358.46875 56.911457L358.46875 58.083332L363.34375 58.083332L363.34375 58.973957L358.46875 58.973957L358.46875 61.317707L357.53125 61.317707L357.53125 58.973957L352.70312 58.973957L352.70312 58.083332L357.53125 58.083332L357.53125 57.052082L356.125 57.145832Q356.07812 57.473957 355.89062 57.286457L355.75 56.302082ZM362.78125 52.598957L353.26562 52.598957L353.26562 51.708332L357.53125 51.708332L357.53125 50.630207L358.42188 50.630207Q358.89062 50.723957 358.46875 51.005207L358.46875 51.708332L362.78125 51.708332L362.78125 52.598957ZM354.0625 53.161457Q354.90625 53.583332 355.5625 54.192707L354.90625 54.989582Q354.29688 54.380207 353.45312 53.864582L354.0625 53.161457Z" fill-rule="nonzero"/><path fill="#757575" d="M25.121876 29.825L30.2 29.66875L28.6375 28.496876L29.653126 27.715626Q32.153126 29.2 33.6375 30.840626L32.465626 31.85625L31.371876 30.684376L25.903126 31.153126L25.903126 35.91875L24.340626 35.91875L24.340626 31.23125L17.934376 31.621876Q17.85625 32.16875 17.54375 31.85625L17.153126 29.98125L23.090626 29.903126L23.6375 29.5125L19.965626 27.6375L20.746876 26.465626L22.153126 27.16875L23.95 25.371876L20.04375 25.371876L20.04375 25.91875L18.715626 25.91875L18.715626 18.653126L31.528126 18.653126L31.528126 25.684376L30.2 25.684376L30.2 25.371876L24.965626 25.371876L25.5125 25.684376Q25.903126 26.075 25.2 25.996876L23.325 27.79375L24.809376 28.575L27.778126 25.840626L29.028126 26.7Q29.340626 27.16875 28.715626 27.090626L25.121876 29.825ZM28.95 31.621876Q30.825 32.95 33.403126 33.73125L32.778126 35.29375Q30.04375 34.5125 28.0125 32.79375L28.95 31.621876ZM22.621876 32.95Q22.778126 33.496876 22.23125 33.2625Q19.653126 35.29375 18.0125 35.840626L17.23125 34.278126Q19.653126 33.340626 21.684376 31.621876L22.621876 32.95ZM25.746876 24.121876L30.2 24.121876L30.2 22.6375L25.746876 22.6375L25.746876 24.121876ZM24.41875 22.6375L20.04375 22.6375L20.04375 24.121876L24.41875 24.121876L24.41875 22.6375ZM30.2 19.903126L25.746876 19.903126L25.746876 21.3875L30.2 21.3875L30.2 19.903126ZM24.41875 19.903126L20.04375 19.903126L20.04375 21.3875L24.41875 21.3875L24.41875 19.903126ZM42.934376 19.434376Q43.090626 19.66875 42.3875 19.590626L40.825 19.98125L40.825 22.79375L42.778126 22.79375L42.778126 24.278126L40.825 24.278126L40.825 26.309376Q42.621876 27.48125 43.325 28.184376L42.54375 29.66875Q41.684376 28.8875 40.825 28.10625L40.825 36.075L39.2625 36.075L39.2625 28.184376Q38.16875 30.684376 36.996876 31.7L35.903126 30.45Q38.325 27.871876 39.2625 24.278126L36.528126 24.278126L36.528126 22.79375L39.2625 22.79375L39.2625 20.371876Q37.54375 20.684376 36.684376 20.840626L36.29375 19.434376Q39.809376 18.965626 42.075 18.028126L42.934376 19.434376ZM42.465626 34.746876Q44.965626 34.04375 46.45 32.95L44.2625 32.95L44.2625 25.996876L52.7 25.996876L52.7 32.95L50.2 32.95Q51.7625 33.8875 53.95 34.5125L53.403126 35.91875Q51.29375 35.528126 49.2625 34.04375L50.04375 32.95L46.60625 32.95L47.465626 34.2Q47.7 34.66875 46.996876 34.434376Q44.73125 35.7625 43.090626 36.23125L42.465626 34.746876ZM49.184376 23.809376L54.10625 23.809376L54.10625 25.059376L43.16875 25.059376L43.16875 23.809376L47.621876 23.809376L47.621876 22.79375L44.340626 22.79375L44.340626 21.85625L47.621876 21.85625L47.621876 20.91875L43.48125 20.91875L43.48125 19.66875L47.621876 19.66875L47.621876 18.10625L49.10625 18.10625Q49.73125 18.184376 49.184376 18.575L49.184376 19.66875L53.559376 19.66875L53.559376 20.91875L49.184376 20.91875L49.184376 21.85625L52.621876 21.85625L52.621876 22.79375L49.184376 22.79375L49.184376 23.809376ZM45.590626 32.0125L51.371876 32.0125L51.371876 30.91875L45.590626 30.91875L45.590626 32.0125ZM45.590626 27.95L51.371876 27.95L51.371876 26.934376L45.590626 26.934376L45.590626 27.95ZM45.590626 29.98125L51.371876 29.98125L51.371876 28.8875L45.590626 28.8875L45.590626 29.98125ZM74.02812 24.746876L74.02812 26.23125L71.52812 26.23125Q72.46562 27.48125 74.49687 28.73125L73.71562 30.29375Q72.85625 29.746876 72.23125 29.2L71.7625 34.278126Q71.60625 35.60625 70.43437 35.60625L68.79375 35.60625L68.48125 33.8875L69.575 33.8875Q70.2 33.8875 70.27812 33.2625L70.5125 30.45L68.325 30.45Q68.325 34.2 64.10625 35.996876L63.246876 34.434376Q66.68437 33.2625 66.84062 30.45L64.41875 30.45L64.41875 29.2Q63.79375 29.746876 63.0125 30.371876L62.153126 29.04375Q64.10625 27.715626 64.96562 26.23125L62.621876 26.23125L62.621876 24.746876L65.66875 24.746876Q65.98125 24.04375 66.21562 23.340626L63.325 23.340626L63.325 21.85625L66.60625 21.85625Q66.99687 19.2 66.99687 17.95L68.40312 18.10625Q69.02812 18.184376 68.40312 18.653126Q68.24687 19.98125 68.0125 21.85625L73.325 21.85625L73.325 23.340626L69.8875 23.340626Q70.2 24.04375 70.59062 24.746876L74.02812 24.746876ZM69.41875 20.91875Q70.12187 19.746876 70.66875 18.496876L72.075 19.121876Q72.62187 19.5125 71.91875 19.66875Q71.1375 21.075 70.66875 21.621876L69.41875 20.91875ZM68.48125 28.965626L71.91875 28.965626Q70.66875 27.715626 69.80937 26.23125L66.60625 26.23125Q65.74687 27.871876 64.65312 28.965626L66.91875 28.965626L66.91875 26.85625L68.40312 26.85625Q69.02812 26.934376 68.48125 27.325L68.48125 28.965626ZM69.02812 24.746876Q68.71562 24.2 68.48125 23.340626L67.7 23.340626Q67.46562 24.2 67.23125 24.746876L69.02812 24.746876ZM58.6375 24.98125L58.6375 28.028126L60.5125 28.028126L60.5125 24.98125L58.6375 24.98125ZM58.6375 20.45L58.6375 23.496876L60.5125 23.496876L60.5125 20.45L58.6375 20.45ZM61.840626 34.746876Q61.840626 35.840626 60.903126 35.840626L59.496876 35.840626L59.184376 34.35625L60.2 34.35625Q60.5125 34.35625 60.5125 34.04375L60.5125 29.5125L58.6375 29.5125L58.6375 30.684376Q58.6375 33.653126 57.153126 35.840626L56.059376 34.590626Q57.309376 32.95 57.309376 30.29375L57.309376 18.965626L61.840626 18.965626L61.840626 34.746876ZM64.73125 18.809376Q65.74687 19.66875 66.29375 20.684376L64.8875 21.621876Q64.18437 20.60625 63.403126 19.746876L64.73125 18.809376ZM91.99687 23.2625Q91.1375 24.35625 89.80937 25.371876L88.6375 24.278126Q90.12187 23.10625 90.825 22.0125L92.30937 22.95Q92.54375 23.2625 91.99687 23.2625ZM90.5125 25.7625Q92.30937 26.621876 93.79375 27.871876L92.62187 29.278126Q91.1375 27.95 89.49687 26.85625L90.5125 25.7625ZM81.29375 26.934376Q80.04375 28.2625 78.48125 29.5125Q78.40312 30.059376 78.09062 29.746876L76.99687 28.41875Q78.87187 27.246876 80.27812 25.840626L81.29375 26.934376ZM81.45 27.48125L82.54375 27.48125L83.95 26.075Q83.16875 25.215626 81.60625 24.121876L82.46562 23.10625L83.0125 23.496876L84.49687 21.465626L85.59062 22.325Q85.90312 22.715626 85.35625 22.6375L84.02812 24.2L84.96562 25.059376L87.075 22.715626L88.09062 23.653126Q88.40312 24.04375 87.77812 23.965626L84.2625 27.48125L87.30937 27.090626L86.52812 26.075L87.7 25.371876Q88.71562 26.465626 89.65312 28.340626L88.325 29.121876L87.93437 28.2625L85.98125 28.496876L85.98125 30.45L94.10625 30.45L94.10625 31.934376L85.98125 31.934376L85.98125 35.840626L84.41875 35.840626L84.41875 31.934376L76.37187 31.934376L76.37187 30.45L84.41875 30.45L84.41875 28.73125L82.075 28.8875Q81.99687 29.434376 81.68437 29.121876L81.45 27.48125ZM93.16875 21.309376L77.30937 21.309376L77.30937 19.825L84.41875 19.825L84.41875 18.028126L85.90312 18.028126Q86.68437 18.184376 85.98125 18.653126L85.98125 19.825L93.16875 19.825L93.16875 21.309376ZM78.6375 22.246876Q80.04375 22.95 81.1375 23.965626L80.04375 25.29375Q79.02812 24.278126 77.62187 23.41875L78.6375 22.246876ZM106.05937 23.653126L106.05937 24.66875L111.45 24.66875L111.45 25.91875L99.02812 25.91875L99.02812 24.66875L104.49687 24.66875L104.49687 23.653126L102.62187 23.653126L100.825 23.653126L100.825 20.60625L109.575 20.60625L109.575 23.653126L106.05937 23.653126ZM102.15312 22.715626L108.24687 22.715626L108.24687 21.54375L102.15312 21.54375L102.15312 22.715626ZM110.12187 32.95L100.35625 32.95L100.35625 26.85625L110.12187 26.85625L110.12187 32.95ZM101.68437 32.0125L108.79375 32.0125L108.79375 27.79375L101.68437 27.79375L101.68437 32.0125ZM102.62187 31.23125L102.62187 28.496876L107.7 28.496876L107.7 31.23125L102.62187 31.23125ZM103.95 30.29375L106.37187 30.29375L106.37187 29.434376L103.95 29.434376L103.95 30.29375ZM98.48125 35.215626L98.48125 35.996876L96.91875 35.996876L96.91875 18.340626L113.48125 18.340626L113.48125 35.840626L111.91875 35.840626L111.91875 35.215626L98.48125 35.215626ZM111.91875 19.825L98.48125 19.825L98.48125 33.73125L111.91875 33.73125L111.91875 19.825Z" fill-rule="nonzero"/></svg>